<?xml version="1.0" standalone="no"?>
<!DOCTYPE svg PUBLIC "-//W3C//DTD SVG 1.1//EN" "http://www.w3.org/Graphics/SVG/1.1/DTD/svg11.dtd" >
<svg xmlns="http://www.w3.org/2000/svg" xmlns:xlink="http://www.w3.org/1999/xlink" version="1.1">
<metadata>
Created by FontForge 20161003 at Thu Sep 14 06:33:05 2017
 By www-data
\251 Dutch Design: Albert-Jan Pool, 1995. Published by FontShop International FontFont release 15
</metadata>
<defs>
<font id="DINBLACK_2" horiz-adv-x="556" >
  <font-face 
    font-family="DINBLACK_2"
    font-weight="400"
    font-stretch="normal"
    units-per-em="1000"
    panose-1="0 0 0 0 0 0 0 0 0 0"
    ascent="800"
    descent="-200"
    x-height="538"
    cap-height="712"
    bbox="-122 -200 1184 1031"
    underline-thickness="108"
    underline-position="-294"
    unicode-range="U+0008-FB02"
  />
<missing-glyph horiz-adv-x="814" 
d="M50 0v814h714v-814h-714zM714 50v714h-614v-714h614z" />
    <glyph glyph-name=".notdef" horiz-adv-x="814" 
d="M50 0v814h714v-814h-714zM714 50v714h-614v-714h614z" />
    <glyph glyph-name=".null" horiz-adv-x="0" 
 />
    <glyph glyph-name="nonmarkingreturn" horiz-adv-x="222" 
 />
    <glyph glyph-name="uni0000" horiz-adv-x="0" 
 />
    <glyph glyph-name="uni0000" horiz-adv-x="0" 
 />
    <glyph glyph-name="uni0000" horiz-adv-x="0" 
 />
    <glyph glyph-name="space" unicode=" " horiz-adv-x="222" 
 />
    <glyph glyph-name="exclam" unicode="!" horiz-adv-x="366" 
d="M262 237h-118l-44 475h206zM119 0v161h168v-161h-168z" />
    <glyph glyph-name="quotedbl" unicode="&#x22;" horiz-adv-x="488" 
d="M284 478v234h147v-234h-147zM57 478v234h147v-234h-147z" />
    <glyph glyph-name="numbersign" unicode="#" horiz-adv-x="713" 
d="M583 412l-13 -88h58v-155h-83l-27 -169h-174l27 169h-90l-27 -169h-174l27 169h-58v155h83l13 88h-58v155h83l24 153h174l-24 -153h90l24 153h174l-24 -153h58v-155h-83zM319 412l-13 -88h90l13 88h-90z" />
    <glyph glyph-name="dollar" unicode="$" horiz-adv-x="633" 
d="M376 -1v-113h-126v108q-77 0 -136.5 22t-108.5 72l112 112q25 -25 67 -37.5t86 -12.5v132l-39 5q-47 6 -83 22t-72.5 53.5t-36.5 130.5q0 89 56 149t155 73v91h126v-89q61 0 111.5 -21.5t91.5 -62.5l-110 -110q-21 21 -53.5 31t-59.5 10v-125l41 -6q94 -13 131 -49.5
t49.5 -75t12.5 -90.5q0 -90 -59 -147t-155 -72zM270 563q-30 -6 -46 -24.5t-16 -39.5q0 -11 3.5 -18.5t11 -15t18.5 -13t29 -7.5v118zM404 256q-7 8 -21 12.5t-27 6.5v-122q62 12 62 61q0 28 -14 42z" />
    <glyph glyph-name="percent" unicode="%" horiz-adv-x="857" 
d="M661 -6q-65 0 -108 35.5t-43 103.5v95q0 67 43.5 103t107.5 36q65 0 108 -35.5t43 -103.5v-95q0 -67 -43.5 -103t-107.5 -36zM322 0h-126l339 712h126zM196 345q-65 0 -108 35.5t-43 103.5v95q0 67 43.5 103t107.5 36q65 0 108 -35.5t43 -103.5v-95q0 -67 -43.5 -103
t-107.5 -36zM696 224q0 20 -9.5 29.5t-25.5 9.5q-17 0 -26 -8.5t-9 -30.5v-87q0 -20 9.5 -29.5t25.5 -9.5q17 0 26 8.5t9 30.5v87zM231 575q0 20 -9.5 29.5t-25.5 9.5q-17 0 -26 -8.5t-9 -30.5v-87q0 -20 9.5 -29.5t25.5 -9.5q17 0 26 8.5t9 30.5v87z" />
    <glyph glyph-name="ampersand" unicode="&#x26;" horiz-adv-x="710" 
d="M504 0l-45 52q-39 -29 -72.5 -43.5t-96.5 -14.5q-122 0 -181.5 57.5t-59.5 164.5q0 57 32 101.5t81 76.5q-30 33 -48.5 66.5t-18.5 80.5q0 81 54 129t155 48q93 0 146 -49t53 -130q0 -39 -17 -67t-53 -55l-50 -37l84 -97q14 16 22 44.5t11 58.5h154q0 -68 -21.5 -123.5
t-61.5 -99.5l139 -163h-206zM304 580q-24 0 -34.5 -11.5t-10.5 -31.5q0 -11 7.5 -23t30.5 -35l24 17q28 20 28 42q0 42 -45 42zM249 295q-24 -17 -33 -34.5t-9 -43.5q0 -32 24.5 -53.5t58.5 -21.5q25 0 39.5 6t30.5 20z" />
    <glyph glyph-name="quotesingle" unicode="'" horiz-adv-x="262" 
d="M57 478v234h148v-234h-148z" />
    <glyph glyph-name="parenleft" unicode="(" horiz-adv-x="358" 
d="M199 -94q-59 59 -70.5 72.5t-28 41.5t-22.5 63.5t-6 79.5v386q0 58 7.5 89t20 52.5t31.5 44t68 71.5l110 -110q-16 -16 -29.5 -30.5t-28.5 -39t-15 -83.5v-374q0 -59 15 -83.5t28.5 -39.5t29.5 -30z" />
    <glyph glyph-name="parenright" unicode=")" horiz-adv-x="358" 
d="M257 19q-11 -19 -30 -41.5t-68 -71.5l-110 110l31 31q12 14 27 38.5t15 83.5v374q0 59 -15 83.5t-30.5 41t-27.5 28.5l110 110q59 -59 70.5 -72.5t28 -41.5t22.5 -63.5t6 -79.5v-386q0 -58 -7.5 -89t-21.5 -55z" />
    <glyph glyph-name="asterisk" unicode="*" horiz-adv-x="506" 
d="M403 356l-99 64l5 -118h-112l5 118l-99 -64l-56 97l105 54l-105 54l56 97l99 -64l-5 118h112l-5 -118l99 64l56 -97l-105 -54l105 -54z" />
    <glyph glyph-name="plus" unicode="+" 
d="M355 206v-152h-154v152h-152v154h152v152h154v-152h152v-154h-152z" />
    <glyph glyph-name="comma" unicode="," horiz-adv-x="288" 
d="M57 -178v352h174v-224z" />
    <glyph glyph-name="hyphen" unicode="-" horiz-adv-x="426" 
d="M49 218v154h328v-154h-328z" />
    <glyph glyph-name="period" unicode="." horiz-adv-x="294" 
d="M57 0v180h180v-180h-180z" />
    <glyph glyph-name="slash" unicode="/" horiz-adv-x="431" 
d="M152 -74h-152l285 860h152z" />
    <glyph glyph-name="zero" unicode="0" 
d="M278 -6q-95 0 -162 58.5t-67 163.5v280q0 105 67 163.5t162 58.5t162 -58.5t67 -163.5v-280q0 -105 -67 -163.5t-162 -58.5zM343 496q0 36 -18 55t-47 19q-28 0 -46.5 -18.5t-18.5 -55.5v-281q0 -36 18.5 -54.5t46.5 -18.5q29 0 47 18t18 55v281z" />
    <glyph glyph-name="one" unicode="1" 
d="M242 0v537l-152 -132v175l152 132h164v-712h-164z" />
    <glyph glyph-name="two" unicode="2" 
d="M53 0v148l258 280q36 39 36 76q0 66 -64 66q-28 0 -47 -15.5t-19 -53.5h-164q0 101 66 159t164 58q101 0 164.5 -58t63.5 -157q0 -53 -19.5 -88t-68.5 -87l-170 -180h258v-148h-458z" />
    <glyph glyph-name="three" unicode="3" 
d="M279 -6q-99 0 -168 55t-69 168h164q0 -36 20.5 -55.5t52.5 -19.5q34 0 53.5 18.5t19.5 57.5q0 33 -21 54t-55 21h-23v142h23q34 0 51 20t17 47q0 33 -18.5 50.5t-46.5 17.5q-27 0 -46 -18t-19 -49h-164q0 98 65.5 156.5t163.5 58.5q99 0 164 -59t65 -152q0 -54 -20 -86
t-54 -53q38 -26 60 -61t22 -94q0 -106 -68 -162.5t-169 -56.5z" />
    <glyph glyph-name="four" unicode="4" 
d="M477 94v-94h-156v94h-295v156l236 462h180l-236 -462h115v94h156v-94h53v-156h-53z" />
    <glyph glyph-name="five" unicode="5" 
d="M446 55q-26 -26 -67.5 -43.5t-97.5 -17.5q-57 0 -99.5 17.5t-73.5 48.5t-44.5 71.5t-13.5 85.5h164q4 -37 20 -56t47 -19q28 0 47.5 19.5t19.5 81.5q0 56 -17 78.5t-50 22.5q-32 0 -45.5 -14t-21.5 -37h-151v419h434v-148h-285v-110q13 10 39 19t57 9q44 0 79.5 -13.5
t67 -45t44.5 -75.5t13 -105q0 -67 -13.5 -108t-52.5 -80z" />
    <glyph glyph-name="six" unicode="6" 
d="M275 -6q-100 0 -168.5 60.5t-68.5 168.5q0 50 15 89.5t53 117.5l137 282h180l-141 -279q8 3 20 4t20 1q73 0 131.5 -57.5t58.5 -157.5q0 -109 -67.5 -169t-169.5 -60zM275 304q-31 0 -52 -21.5t-21 -59.5t20.5 -59.5t52.5 -21.5q31 0 52 21.5t21 59.5t-20.5 59.5
t-52.5 21.5z" />
    <glyph glyph-name="seven" unicode="7" 
d="M300 0h-180l222 564h-152v-112h-156v260h488v-148z" />
    <glyph glyph-name="eight" unicode="8" 
d="M278 -6q-104 0 -171.5 56t-67.5 163q0 57 23.5 91.5t56.5 61.5q-31 26 -52 58t-21 83q0 97 67.5 154t164.5 57q96 0 164 -57t68 -154q0 -50 -22 -83t-51 -58q34 -28 57 -61.5t23 -91.5q0 -106 -67 -162.5t-172 -56.5zM278 570q-29 0 -48.5 -19.5t-19.5 -48.5t19.5 -48.5
t48.5 -19.5t48.5 19.5t19.5 48.5t-19.5 48.5t-48.5 19.5zM278 292q-31 0 -53 -22t-22 -53t22 -53t53 -22t53 22t22 53t-22 53t-53 22z" />
    <glyph glyph-name="nine" unicode="9" 
d="M450 282l-137 -282h-180l141 279q-8 -3 -20 -4t-20 -1q-73 0 -131.5 57.5t-58.5 157.5q0 109 67.5 169t169.5 60q100 0 168.5 -60.5t68.5 -168.5q0 -50 -15 -89.5t-53 -117.5zM281 570q-31 0 -52 -21.5t-21 -59.5t20.5 -59.5t52.5 -21.5q31 0 52 21.5t21 59.5t-20.5 59.5
t-52.5 21.5z" />
    <glyph glyph-name="colon" unicode=":" horiz-adv-x="317" 
d="M80 253v180h180v-180h-180zM80 0v180h180v-180h-180z" />
    <glyph glyph-name="semicolon" unicode=";" horiz-adv-x="317" 
d="M80 253v180h180v-180h-180zM83 -178v352h174v-224z" />
    <glyph glyph-name="less" unicode="&#x3c;" horiz-adv-x="1027" 
d="M325 218l304 -300h-205l-377 377l377 377h205l-304 -300h654v-154h-654z" />
    <glyph glyph-name="equal" unicode="=" 
d="M49 340v154h458v-154h-458zM49 96v154h458v-154h-458z" />
    <glyph glyph-name="greater" unicode="&#x3e;" horiz-adv-x="1027" 
d="M603 -82h-205l304 300h-655v154h655l-304 300h205l377 -377z" />
    <glyph glyph-name="question" unicode="?" horiz-adv-x="538" 
d="M457 380l-69 -87q-6 -8 -12 -21.5t-6 -25.5v-9h-164v23q0 63 41 111l70 82q11 13 19 28.5t8 27.5q0 27 -15 44t-45 17t-45 -17t-15 -46h-164q0 98 64.5 154.5t159.5 56.5q94 0 159 -55.5t65 -154.5q0 -36 -13.5 -66.5t-37.5 -61.5zM204 0v161h168v-161h-168z" />
    <glyph glyph-name="at" unicode="@" horiz-adv-x="784" 
d="M584 0v40q-24 -24 -49.5 -35t-63.5 -11q-74 0 -112.5 37t-47 77.5t-8.5 117.5q0 80 7.5 118t47 76t112.5 38q66 0 109 -41v26q0 30 -6.5 53t-24.5 41t-42.5 25.5t-53.5 7.5h-120q-32 0 -53.5 -6t-40.5 -25t-26 -43t-7 -53v-262q0 -31 7.5 -48t28.5 -38l-113 -113
q-43 43 -61 83.5t-18 105.5v278q0 74 13 120.5t50 83.5t86.5 51t122.5 14h142q73 0 122 -13.5t85.5 -50t50.5 -84.5t14 -121v-453zM519 322q-31 0 -45.5 -22t-14.5 -74q0 -51 15 -73.5t45 -22.5q31 0 45.5 22t14.5 74q0 51 -15 73.5t-45 22.5z" />
    <glyph glyph-name="A" unicode="A" horiz-adv-x="653" 
d="M470 0l-33 106h-219l-35 -106h-183l259 712h135l259 -712h-183zM331 442l-64 -190h124z" />
    <glyph glyph-name="B" unicode="B" horiz-adv-x="653" 
d="M382 0h-310v712h295q109 0 168 -56t59 -150q0 -53 -24 -87t-54 -54q38 -23 63 -56t25 -99q0 -100 -61.5 -155t-160.5 -55zM356 555h-109v-116h109q33 0 48 17t15 41t-15 41t-48 17zM365 282h-118v-125h118q33 0 48.5 18.5t15.5 44.5q0 25 -15.5 43.5t-48.5 18.5z" />
    <glyph glyph-name="C" unicode="C" horiz-adv-x="609" 
d="M319 -6q-118 0 -183 65t-76 126.5t-11 170.5q0 114 10.5 172.5t55.5 103.5t94.5 65.5t109.5 20.5q105 0 178 -59t92 -173h-178q-10 36 -30 56t-61 20q-24 0 -41 -7.5t-29 -23.5t-19 -51.5t-7 -123.5q0 -91 6 -123.5t25 -57.5t65 -25q40 0 60.5 20.5t30.5 55.5h178
q-19 -114 -91.5 -173t-178.5 -59z" />
    <glyph glyph-name="D" unicode="D" horiz-adv-x="651" 
d="M528 70q-35 -35 -85 -52.5t-107 -17.5h-264v712h264q59 0 107.5 -17t85 -53.5t55 -84t18.5 -150.5v-51v-53q0 -83 -12.5 -133.5t-61.5 -99.5zM408 516q-13 20 -32.5 30t-51.5 10h-77v-400h77q31 0 51 10.5t32.5 28.5t16 45.5t3.5 115.5q0 87 -4 115.5t-15 44.5z" />
    <glyph glyph-name="E" unicode="E" horiz-adv-x="608" 
d="M72 0v712h484v-156h-309v-119h264v-156h-264v-125h309v-156h-484z" />
    <glyph glyph-name="F" unicode="F" horiz-adv-x="596" 
d="M247 556v-125h264v-156h-264v-275h-175v712h484v-156h-309z" />
    <glyph glyph-name="G" unicode="G" horiz-adv-x="647" 
d="M526 74q-42 -44 -93.5 -62t-113.5 -18q-118 0 -183 65t-76 126.5t-11 170.5q0 114 10.5 172.5t55.5 103.5t93.5 65.5t110.5 20.5q127 0 195.5 -68t82.5 -168h-176q-11 42 -34 61t-68 19q-23 0 -40.5 -8.5t-30 -24.5t-18.5 -49.5t-6 -123.5t6 -124t24.5 -58t64.5 -24
q52 0 72 21t26.5 40.5t6.5 42.5v10h-105v146h279v-99q0 -90 -15.5 -142.5t-56.5 -94.5z" />
    <glyph glyph-name="H" unicode="H" horiz-adv-x="680" 
d="M433 0v282h-186v-282h-175v712h175v-274h186v274h175v-712h-175z" />
    <glyph glyph-name="I" unicode="I" horiz-adv-x="319" 
d="M72 0v712h175v-712h-175z" />
    <glyph glyph-name="J" unicode="J" horiz-adv-x="516" 
d="M186 -6q-63 0 -107 17.5t-87 60.5l115 114q18 -18 35 -27t44 -9q43 0 68 24t25 74v464h175v-468q0 -120 -79 -185t-189 -65z" />
    <glyph glyph-name="K" unicode="K" horiz-adv-x="673" 
d="M469 0l-164 292l-60 -69v-223h-173v712h173v-252l206 252h214l-243 -288l251 -424h-204z" />
    <glyph glyph-name="L" unicode="L" horiz-adv-x="576" 
d="M72 0v712h175v-556h299v-156h-474z" />
    <glyph glyph-name="M" unicode="M" horiz-adv-x="808" 
d="M561 0v341l-101 -176h-112l-101 176v-341h-175v712h172l160 -314l160 314h172v-712h-175z" />
    <glyph glyph-name="N" unicode="N" horiz-adv-x="700" 
d="M475 0l-228 358v-358h-175v712h153l228 -358v358h175v-712h-153z" />
    <glyph glyph-name="O" unicode="O" horiz-adv-x="640" 
d="M519 74q-40 -40 -88 -60t-111 -20q-119 0 -184 65t-76 126.5t-11 170.5q0 114 10.5 172.5t56 104t93.5 65.5t111 20q119 0 184 -65t76 -126.5t11 -170.5q0 -114 -10.5 -172.5t-61.5 -109.5zM390 531q-10 14 -28.5 22.5t-41.5 8.5t-41 -8.5t-30.5 -24.5t-18.5 -49.5
t-6 -123.5t6 -123t18 -48.5t31 -25t41 -9.5q46 0 65 25t25 58t6 123q0 89 -6 123t-20 52z" />
    <glyph glyph-name="P" unicode="P" horiz-adv-x="627" 
d="M354 254h-107v-254h-175v712h282q114 0 178.5 -67.5t64.5 -161.5q0 -93 -65 -161t-178 -68zM346 555h-99v-144h99q35 0 55.5 21.5t20.5 50.5t-20.5 50.5t-55.5 21.5z" />
    <glyph glyph-name="Q" unicode="Q" horiz-adv-x="640" 
d="M513 -28l-55 55q-57 -33 -138 -33q-119 0 -184 65t-76 126.5t-11 170.5q0 114 10.5 172.5t56 104t93.5 65.5t111 20q119 0 184 -65t76 -126.5t11 -170.5v-33q0 -91 -10 -134t-31 -76l52 -52zM390 531q-10 14 -28.5 22.5t-41.5 8.5t-41 -8.5t-30.5 -24.5t-18.5 -49.5
t-6 -123.5t6 -123t18 -48.5t31 -25t41 -9.5l14 1l-45 45l89 89l34 -34l4 105q0 89 -6 123t-20 52z" />
    <glyph glyph-name="R" unicode="R" horiz-adv-x="652" 
d="M432 0l-126 265h-59v-265h-175v712h282q114 0 178.5 -67.5t64.5 -161.5q0 -67 -34 -114.5t-82 -71.5l154 -297h-203zM346 555h-99v-144h99q35 0 55.5 21.5t20.5 50.5t-20.5 50.5t-55.5 21.5z" />
    <glyph glyph-name="S" unicode="S" horiz-adv-x="593" 
d="M275 -6q-89 0 -153.5 20.5t-116.5 73.5l112 112q26 -26 68.5 -38t90.5 -12q102 0 102 64q0 27 -10.5 38t-21.5 16t-29 7l-86 12q-95 14 -143.5 63.5t-48.5 142.5q0 99 70 162t190 63q79 0 136.5 -19.5t103.5 -65.5l-110 -110q-20 20 -49 31t-73 11h-13q-43 0 -64.5 -19.5
t-21.5 -46.5q0 -11 3.5 -18.5t11 -15t18.5 -13t30 -7.5l86 -12q94 -13 131 -49.5t49.5 -75t12.5 -90.5q0 -104 -78.5 -164t-196.5 -60z" />
    <glyph glyph-name="T" unicode="T" horiz-adv-x="585" 
d="M380 556v-556h-175v556h-175v156h525v-156h-175z" />
    <glyph glyph-name="U" unicode="U" horiz-adv-x="660" 
d="M329 -6q-114 0 -191.5 70.5t-77.5 185.5v462h175v-458q0 -49 24.5 -76.5t69.5 -27.5q44 0 70 27t26 77v458h175v-462q0 -114 -78.5 -185t-192.5 -71z" />
    <glyph glyph-name="V" unicode="V" horiz-adv-x="601" 
d="M365 0h-130l-235 712h181l120 -398l118 398h182z" />
    <glyph glyph-name="W" unicode="W" horiz-adv-x="906" 
d="M711 0h-143l-115 351l-115 -351h-142l-196 712h183l93 -376l115 376h124l115 -376l93 376h183z" />
    <glyph glyph-name="X" unicode="X" horiz-adv-x="634" 
d="M434 0l-117 219l-117 -219h-200l222 365l-208 347h199l104 -201l104 201h199l-208 -347l222 -365h-200z" />
    <glyph glyph-name="Y" unicode="Y" horiz-adv-x="605" 
d="M390 290v-290h-175v290l-215 422h191l112 -256l111 256h191z" />
    <glyph glyph-name="Z" unicode="Z" horiz-adv-x="543" 
d="M30 0v136l273 420h-261v156h471v-136l-274 -420h274v-156h-483z" />
    <glyph glyph-name="bracketleft" unicode="[" horiz-adv-x="416" 
d="M72 -74v860h304v-148h-140v-564h140v-148h-304z" />
    <glyph glyph-name="backslash" unicode="\" horiz-adv-x="431" 
d="M279 -74l-279 842h152l279 -842h-152z" />
    <glyph glyph-name="bracketright" unicode="]" horiz-adv-x="416" 
d="M40 -74v148h140v564h-140v148h304v-860h-304z" />
    <glyph glyph-name="asciicircum" unicode="^" horiz-adv-x="640" 
d="M410 375l-90 165l-90 -165h-173l187 345h152l187 -345h-173z" />
    <glyph glyph-name="underscore" unicode="_" horiz-adv-x="640" 
d="M0 -186v108h640v-108h-640z" />
    <glyph glyph-name="grave" unicode="`" horiz-adv-x="500" 
d="M209 610l-118 180h168l49 -180h-99z" />
    <glyph glyph-name="a" unicode="a" horiz-adv-x="536" 
d="M323 0v44q-26 -26 -52 -37.5t-68 -11.5q-81 0 -116 35t-47.5 68t-12.5 71q0 66 46 111t137 45h109v14q0 36 -18.5 51.5t-62.5 15.5q-31 0 -48 -7.5t-38 -28.5l-102 102q40 40 84 56t112 16q237 0 237 -195v-349h-160zM319 216h-83q-24 0 -38 -12t-14 -31t14 -32t40 -13
q27 0 39 3.5t27 17.5t15 53v14z" />
    <glyph glyph-name="b" unicode="b" horiz-adv-x="569" 
d="M476 43q-49 -49 -131 -49q-41 0 -69.5 12t-54.5 38v-44h-159v712h164v-213q45 45 120 45q81 0 126 -45t49.5 -104.5t4.5 -125.5v-30q0 -72 -9 -118t-41 -78zM294 396q-43 0 -55.5 -30t-12.5 -97t12.5 -97t55.5 -30t55.5 30t12.5 97t-12.5 97t-55.5 30z" />
    <glyph glyph-name="c" unicode="c" horiz-adv-x="475" 
d="M280 -6q-95 0 -168.5 59t-73.5 216q0 156 74 215.5t168 59.5q55 0 99 -17.5t78 -51.5l-111 -111q-16 16 -31 24t-35 8q-30 0 -54 -24.5t-24 -102.5q0 -40 6.5 -65.5t24 -43.5t47.5 -18q34 0 66 32l111 -111q-34 -34 -77.5 -51.5t-99.5 -17.5z" />
    <glyph glyph-name="d" unicode="d" horiz-adv-x="569" 
d="M348 0v44q-25 -25 -54 -37.5t-70 -12.5q-82 0 -121.5 40t-49.5 88.5t-10 116.5v30q0 88 7.5 139.5t49.5 93.5t123 42q75 0 120 -45v213h164v-712h-159zM275 396q-43 0 -55.5 -30t-12.5 -97t12.5 -97t55.5 -30t55.5 30t12.5 97t-12.5 97t-55.5 30z" />
    <glyph glyph-name="e" unicode="e" horiz-adv-x="559" 
d="M199 216q0 -35 25.5 -59.5t69.5 -24.5q42 0 64 10t47 35l98 -98q-44 -44 -90.5 -64.5t-118.5 -20.5q-111 0 -183.5 58.5t-72.5 216.5q0 129 66.5 202t174.5 73q113 0 177.5 -72.5t64.5 -182.5v-73h-322zM350 367q-9 20 -25.5 31t-45.5 11q-28 0 -45.5 -11.5t-26 -30
t-8.5 -42.5h160q0 15 -1.5 22.5t-7.5 19.5z" />
    <glyph glyph-name="f" unicode="f" horiz-adv-x="358" 
d="M243 391v-391h-164v391h-49v126h49v47q0 64 42 111.5t125 47.5h87v-138h-57q-33 0 -33 -33v-35h90v-126h-90z" />
    <glyph glyph-name="g" unicode="g" horiz-adv-x="561" 
d="M256 -180q-68 0 -115 15t-87 55l102 102q18 -18 41 -26t51 -8q46 0 66.5 25t20.5 57v39q-45 -45 -116 -45q-78 0 -118.5 40.5t-49 85t-8.5 129.5q0 90 8 131.5t49 82.5t120 41q41 0 67 -11.5t53 -38.5v44h159v-499q0 -96 -66.5 -157.5t-176.5 -61.5zM271 396
q-31 0 -47.5 -21t-16.5 -86q0 -67 15.5 -87t48.5 -20q31 0 47.5 21t16.5 86q0 67 -15.5 87t-48.5 20z" />
    <glyph glyph-name="h" unicode="h" horiz-adv-x="573" 
d="M352 0v326q0 39 -20 54.5t-43 15.5q-22 0 -42.5 -16t-20.5 -54v-326h-164v712h164v-218q25 25 55 37.5t63 12.5q84 0 128 -54.5t44 -140.5v-349h-164z" />
    <glyph glyph-name="i" unicode="i" horiz-adv-x="288" 
d="M62 593v125h164v-125h-164zM62 0v517h164v-517h-164z" />
    <glyph glyph-name="j" unicode="j" horiz-adv-x="288" 
d="M62 593v125h164v-125h-164zM59 -180h-87v138h57q33 0 33 33v526h164v-538q0 -64 -42 -111.5t-125 -47.5z" />
    <glyph glyph-name="k" unicode="k" horiz-adv-x="573" 
d="M370 0l-112 197l-32 -35v-162h-164v712h164v-362l145 188h197l-198 -223l203 -315h-203z" />
    <glyph glyph-name="l" unicode="l" horiz-adv-x="341" 
d="M224 0q-83 0 -125 47.5t-42 111.5v553h164v-541q0 -33 33 -33h57v-138h-87z" />
    <glyph glyph-name="m" unicode="m" horiz-adv-x="875" 
d="M654 0v322q0 41 -21 57.5t-45 16.5t-45 -16.5t-21 -57.5v-322h-164v322q0 41 -21 57.5t-45 16.5t-45 -16.5t-21 -57.5v-322h-164v538h160v-44q23 23 57 36.5t68 13.5q81 0 131 -57q36 31 70.5 44t81.5 13q39 0 73 -12t61.5 -39.5t40.5 -64t13 -84.5v-344h-164z" />
    <glyph glyph-name="n" unicode="n" horiz-adv-x="579" 
d="M358 0v322q0 41 -21 57.5t-45 16.5t-45 -16.5t-21 -57.5v-322h-164v538h160v-44q23 23 57 36.5t68 13.5q38 0 68 -11.5t57.5 -39t38.5 -64t11 -85.5v-344h-164z" />
    <glyph glyph-name="o" unicode="o" horiz-adv-x="550" 
d="M448 63q-28 -30 -70.5 -49.5t-102.5 -19.5q-61 0 -102.5 19t-72.5 52.5t-44 78.5t-13 125q0 81 12 124.5t43.5 77.5t74 53.5t102.5 19.5q61 0 102.5 -19t72.5 -52.5t44 -79.5t13 -124q0 -81 -12 -124.5t-47 -81.5zM319 381q-15 15 -44 15t-44 -15t-19.5 -40.5t-4.5 -71.5
q0 -45 4.5 -71t19.5 -41t44 -15t44 15t19.5 40.5t4.5 71.5q0 45 -4.5 71t-19.5 41z" />
    <glyph glyph-name="p" unicode="p" horiz-adv-x="569" 
d="M476 43q-49 -49 -130 -49q-75 0 -120 45v-213h-164v712h159v-44q25 25 54 37.5t70 12.5q82 0 127 -45t49.5 -104.5t4.5 -125.5v-30q0 -72 -9 -118t-41 -78zM294 396q-43 0 -55.5 -30t-12.5 -97t12.5 -97t55.5 -30t55.5 30t12.5 97t-12.5 97t-55.5 30z" />
    <glyph glyph-name="q" unicode="q" horiz-adv-x="569" 
d="M343 -174v213q-45 -45 -120 -45q-81 0 -120.5 40t-49.5 88.5t-10 116.5v30q0 88 7.5 139.5t49.5 93.5t124 42q41 0 69.5 -12t54.5 -38v44h159v-712h-164zM275 396q-43 0 -55.5 -30t-12.5 -97t12.5 -97t55.5 -30t55.5 30t12.5 97t-12.5 97t-55.5 30z" />
    <glyph glyph-name="r" unicode="r" horiz-adv-x="475" 
d="M351 368q-14 14 -27 21t-32 7q-32 0 -49 -21.5t-17 -52.5v-322h-164v538h160v-44q21 21 54.5 35.5t72.5 14.5q40 0 69 -11t57 -39z" />
    <glyph glyph-name="s" unicode="s" horiz-adv-x="504" 
d="M244 -6q-78 0 -130.5 13.5t-103.5 64.5l106 106q23 -23 53 -34t78 -11q24 0 47 8t23 27q0 13 -8.5 22.5t-30.5 11.5l-83 8q-74 7 -115 44t-41 112q0 84 64 131t150 47q72 0 123 -14t89 -52l-101 -101q-18 18 -47.5 25t-66.5 7q-26 0 -39.5 -10t-13.5 -21q0 -7 3 -17
t32 -13l83 -8q81 -8 121.5 -52.5t40.5 -111.5q0 -90 -66 -136t-167 -46z" />
    <glyph glyph-name="t" unicode="t" horiz-adv-x="363" 
d="M241 0q-83 0 -125 47.5t-42 111.5v232h-49v126h49v154h164v-154h85v-126h-85v-220q0 -33 33 -33h52v-138h-82z" />
    <glyph glyph-name="u" unicode="u" horiz-adv-x="579" 
d="M357 0v44q-23 -23 -57 -36.5t-68 -13.5q-38 0 -68 11.5t-57.5 39t-38.5 64t-11 85.5v344h164v-322q0 -41 21 -57.5t45 -16.5t45 16.5t21 57.5v322h164v-538h-160z" />
    <glyph glyph-name="v" unicode="v" horiz-adv-x="521" 
d="M323 0h-125l-198 538h172l89 -279l88 279h172z" />
    <glyph glyph-name="w" unicode="w" horiz-adv-x="780" 
d="M618 0h-131l-97 295l-97 -295h-131l-162 538h173l67 -279l93 279h114l93 -279l67 279h173z" />
    <glyph glyph-name="x" unicode="x" 
d="M359 0l-82 136l-80 -136h-197l187 275l-180 263h197l73 -130l75 130h197l-180 -263l187 -275h-197z" />
    <glyph glyph-name="y" unicode="y" horiz-adv-x="514" 
d="M299 -64q-16 -45 -40.5 -70t-54.5 -35.5t-68 -10.5h-62v148h35q23 0 35 7.5t20 32.5l15 45l-179 485h172l91 -279l87 279h172z" />
    <glyph glyph-name="z" unicode="z" horiz-adv-x="489" 
d="M30 0v121l205 269h-193v148h407v-121l-209 -269h209v-148h-419z" />
    <glyph glyph-name="braceleft" unicode="{" horiz-adv-x="518" 
d="M338 -74q-39 0 -68.5 10.5t-52.5 33.5t-34.5 52.5t-11.5 62.5v119q0 43 -17.5 60.5t-55.5 17.5h-58v148h58q38 0 55.5 17.5t17.5 60.5v119q0 32 11.5 62t34 52.5t52 33.5t69.5 11h140v-148h-70q-43 0 -58 -15t-15 -63v-104q0 -41 -17.5 -65.5t-55.5 -34.5
q28 -7 50.5 -27.5t22.5 -72.5v-104q0 -48 15 -63t58 -15h70v-148h-140z" />
    <glyph glyph-name="bar" unicode="|" horiz-adv-x="364" 
d="M100 -74v860h164v-860h-164z" />
    <glyph glyph-name="braceright" unicode="}" horiz-adv-x="518" 
d="M420 282q-38 0 -55.5 -17.5t-17.5 -60.5v-119q0 -32 -11.5 -62t-34 -52.5t-52 -33.5t-69.5 -11h-140v148h70q43 0 58 15t15 63v104q0 41 17.5 65.5t55.5 34.5q-28 7 -50.5 27.5t-22.5 72.5v104q0 48 -15 63t-58 15h-70v148h140q39 0 68.5 -10.5t52.5 -33.5t34.5 -52.5
t11.5 -62.5v-119q0 -43 17.5 -60.5t55.5 -17.5h58v-148h-58z" />
    <glyph glyph-name="asciitilde" unicode="~" horiz-adv-x="646" 
d="M429 187q-38 0 -62.5 6.5t-54 24t-48.5 23t-42 5.5t-43.5 -8.5t-44.5 -32.5l-104 104q51 51 92.5 73.5t92.5 22.5q38 0 62.5 -6.5t54 -24t48.5 -23t42 -5.5t43.5 8.5t44.5 32.5l106 -104q-51 -51 -93.5 -73.5t-93.5 -22.5z" />
    <glyph glyph-name="nonbreakingspace" unicode="&#xa0;" horiz-adv-x="222" 
 />
    <glyph glyph-name="exclamdown" unicode="&#xa1;" horiz-adv-x="366" 
d="M79 377v161h168v-161h-168zM60 -174l44 475h118l44 -475h-206z" />
    <glyph glyph-name="cent" unicode="&#xa2;" horiz-adv-x="499" 
d="M350 98v-98h-126v98q-82 19 -134 86.5t-52 181.5t51.5 181.5t134.5 86.5v78h126v-78q39 -9 71 -28.5t60 -47.5l-107 -107q-13 13 -21.5 20t-22.5 13v-236q11 5 22.5 14t21.5 19l107 -107q-27 -27 -59.5 -47t-71.5 -29zM244 482l-12 -10q-30 -32 -30 -106q0 -73 18.5 -93
t23.5 -23v232z" />
    <glyph glyph-name="sterling" unicode="&#xa3;" horiz-adv-x="597" 
d="M95 0v278h-60v126h60v64q0 120 79 185t189 65q63 0 107 -17.5t87 -60.5l-115 -114q-18 18 -35 27t-44 9q-43 0 -68 -24t-25 -74v-60h93v-126h-93v-122h287v-156h-462z" />
    <glyph glyph-name="currency" unicode="&#xa4;" horiz-adv-x="674" 
d="M518 5l-73 73q-27 -13 -53 -19.5t-55 -6.5q-28 0 -55 7t-53 19l-73 -73l-109 109l73 73q-13 27 -19.5 53t-6.5 55q0 28 7 55t19 53l-73 73l109 109l73 -73q27 13 53 19.5t55 6.5q28 0 55 -7t53 -19l73 73l109 -109l-73 -73q13 -27 19.5 -53t6.5 -55q0 -28 -7 -55t-19 -53
l73 -73zM337 390q-39 0 -67 -28t-28 -67t28 -67t67 -28t67 28t28 67t-28 67t-67 28z" />
    <glyph glyph-name="yen" unicode="&#xa5;" horiz-adv-x="605" 
d="M480 466h60v-126h-125l-25 -50v-50h150v-126h-150v-114h-175v114h-150v126h150v50l-25 50h-125v126h60l-125 246h191l112 -256l111 256h191z" />
    <glyph glyph-name="section" unicode="&#xa7;" horiz-adv-x="516" 
d="M394 145q32 -20 51.5 -50.5t19.5 -84.5q0 -94 -62 -142t-144 -48q-83 0 -144.5 45t-61.5 142h156q0 -17 13.5 -30.5t36.5 -13.5q24 0 37 12t13 29q0 21 -15 34.5t-44 23.5l-54 20q-82 30 -116.5 69.5t-34.5 121.5q0 47 26 84t57 56q-29 18 -47.5 47t-18.5 79
q0 72 49 125.5t150 53.5q102 0 150.5 -51.5t48.5 -129.5h-152q0 21 -13.5 31.5t-33.5 10.5q-24 0 -35.5 -10.5t-11.5 -24.5q0 -28 56 -48l54 -20q82 -30 116.5 -69.5t34.5 -121.5q0 -46 -26 -83t-55 -57zM299 332q-7 6 -16 9.5t-23 3.5t-23 -3.5t-16.5 -10t-13.5 -19
t-6 -33.5t6 -33.5t13.5 -19t16.5 -10t23 -3.5t23 3.5t16.5 10t13.5 19t6 33.5t-6 33.5t-14 19.5z" />
    <glyph glyph-name="dieresis" unicode="&#xa8;" horiz-adv-x="500" 
d="M296 609v145h134v-145h-134zM70 609v145h134v-145h-134z" />
    <glyph glyph-name="copyright" unicode="&#xa9;" horiz-adv-x="822" 
d="M411 -6q-150 0 -256 106t-106 256t106 256t256 106t256 -106t106 -256t-106 -256t-256 -106zM411 621q-112 0 -185.5 -74.5t-73.5 -190.5t73.5 -190.5t185.5 -74.5t185.5 74.5t73.5 190.5t-73.5 190.5t-185.5 74.5zM420 164q-75 0 -128 48.5t-53 143.5t53 143.5t128 48.5
q40 0 71 -13t61 -39l-67 -67q-17 14 -32 20.5t-33 6.5q-36 0 -57 -25t-21 -75q0 -49 21 -74.5t57 -25.5q32 0 65 27l67 -67q-31 -26 -61 -39t-71 -13z" />
    <glyph glyph-name="ordfeminine" unicode="&#xaa;" horiz-adv-x="457" 
d="M279 283v35q-21 -21 -42 -30t-54 -9q-32 0 -57.5 10t-54 38.5t-28.5 90.5q0 54 36.5 89.5t109.5 35.5h87v11q0 29 -15.5 41.5t-49.5 12.5q-25 0 -37.5 -5.5t-30.5 -23.5l-82 82q33 33 66.5 45t90.5 12q189 0 189 -156v-279h-128zM276 456h-66q-19 0 -29.5 -9.5
t-10.5 -24.5q0 -35 41 -35q23 0 32.5 2.5t21 14t11.5 40.5v12z" />
    <glyph glyph-name="guillemotleft" unicode="&#xab;" horiz-adv-x="672" 
d="M339 280l273 270v-193l-81 -77l81 -78v-193zM30 280l273 270v-193l-79 -77l79 -78v-193z" />
    <glyph glyph-name="logicalnot" unicode="&#xac;" 
d="M359 88v150h-316v154h470v-304h-154z" />
    <glyph glyph-name="registered" unicode="&#xae;" horiz-adv-x="822" 
d="M411 -6q-150 0 -256 106t-106 256t106 256t256 106t256 -106t106 -256t-106 -256t-256 -106zM411 621q-112 0 -185.5 -74.5t-73.5 -190.5t73.5 -190.5t185.5 -74.5t185.5 74.5t73.5 190.5t-73.5 190.5t-185.5 74.5zM463 167l-57 141h-31v-141h-103v378h169
q60 0 94.5 -35.5t34.5 -86.5q0 -35 -17.5 -60t-43.5 -38l71 -158h-117zM427 461h-52v-76h52q18 0 29 11t11 27t-11 27t-29 11z" />
    <glyph glyph-name="tilde" unicode="&#xaf;" horiz-adv-x="500" 
d="M87 639v105h326v-105h-326z" />
    <glyph glyph-name="degree" unicode="&#xb0;" horiz-adv-x="486" 
d="M243 338q-81 0 -138.5 57.5t-57.5 138.5t57.5 138.5t138.5 57.5t138.5 -57.5t57.5 -138.5t-57.5 -138.5t-138.5 -57.5zM243 599q-27 0 -46 -19t-19 -46t19 -46t46 -19t46 19t19 46t-19 46t-46 19z" />
    <glyph glyph-name="plusminus" unicode="&#xb1;" 
d="M355 371v-152h-154v152h-152v154h152v152h154v-152h152v-154h-152zM49 0v154h458v-154h-458z" />
    <glyph glyph-name="acute" unicode="&#xb4;" horiz-adv-x="500" 
d="M291 610h-99l49 180h168z" />
    <glyph glyph-name="mu" unicode="&#xb5;" horiz-adv-x="584" 
d="M362 0v44q-23 -23 -57 -36.5t-68 -13.5h-11v-168h-164v712h164v-322q0 -41 21 -57.5t45 -16.5t45 16.5t21 57.5v322h164v-538h-160z" />
    <glyph glyph-name="paragraph" unicode="&#xb6;" horiz-adv-x="707" 
d="M471 -174v730h-90v-730h-164v472q-70 0 -128.5 59.5t-58.5 145.5q0 105 65.5 157t175.5 52h364v-886h-164z" />
    <glyph glyph-name="periodcentered" unicode="&#xb7;" horiz-adv-x="294" 
d="M57 205v180h180v-180h-180z" />
    <glyph glyph-name="ring" unicode="&#xb8;" horiz-adv-x="500" 
d="M297 -200h-146l67 144h115z" />
    <glyph glyph-name="ordmasculine" unicode="&#xba;" horiz-adv-x="466" 
d="M371 333q-23 -24 -56 -39.5t-82 -15.5q-47 0 -81.5 15.5t-58.5 42t-35 63.5t-11 99q0 65 10.5 100t35.5 62t58 42.5t82 15.5q47 0 81.5 -15.5t58.5 -42t35 -63.5t11 -99q0 -66 -10 -100.5t-38 -64.5zM268 588q-12 12 -35 12t-36 -13t-15.5 -39.5t-2.5 -49.5
q0 -36 3.5 -57t15.5 -33t35 -12t36 13t15.5 39.5t2.5 49.5q0 36 -3.5 57t-15.5 33z" />
    <glyph glyph-name="guillemotright" unicode="&#xbb;" horiz-adv-x="672" 
d="M369 9v193l79 78l-79 77v193l273 -270zM60 9v193l80 78l-80 77v193l273 -270z" />
    <glyph glyph-name="questiondown" unicode="&#xbf;" horiz-adv-x="538" 
d="M166 377v161h168v-161h-168zM254 -180q-94 0 -159 55.5t-65 154.5q0 36 13.5 66.5t37.5 61.5l69 87q6 8 12 21.5t6 25.5v9h164v-23q0 -63 -41 -111l-70 -82q-11 -13 -19 -28.5t-8 -27.5q0 -27 15 -44t45 -17t45 17t15 46h164q0 -98 -64.5 -154.5t-159.5 -56.5z" />
    <glyph glyph-name="Agrave" unicode="&#xc0;" horiz-adv-x="653" 
d="M470 0l-33 106h-219l-35 -106h-183l259 712h135l259 -712h-183zM331 442l-64 -190h124zM285 782l-118 180h168l49 -180h-99z" />
    <glyph glyph-name="Aacute" unicode="&#xc1;" horiz-adv-x="653" 
d="M470 0l-33 106h-219l-35 -106h-183l259 712h135l259 -712h-183zM331 442l-64 -190h124zM367 782h-99l49 180h168z" />
    <glyph glyph-name="Acircumflex" unicode="&#xc2;" horiz-adv-x="653" 
d="M470 0l-33 106h-219l-35 -106h-183l259 712h135l259 -712h-183zM331 442l-64 -190h124zM405 782l-79 83l-79 -83h-120l136 179h126l136 -179h-120z" />
    <glyph glyph-name="Atilde" unicode="&#xc3;" horiz-adv-x="653" 
d="M470 0l-33 106h-219l-35 -106h-183l259 712h135l259 -712h-183zM331 442l-64 -190h124zM396 792q-24 0 -41.5 4.5t-43 19.5t-52.5 15q-17 0 -28.5 -4.5t-29.5 -22.5l-68 69q33 33 61 48t61 15q24 0 41.5 -4.5t43 -19.5t51.5 -15q17 0 28.5 4.5t29.5 22.5l70 -69
q-32 -32 -61 -47.5t-62 -15.5z" />
    <glyph glyph-name="Adieresis" unicode="&#xc4;" horiz-adv-x="653" 
d="M470 0l-33 106h-219l-35 -106h-183l259 712h135l259 -712h-183zM331 442l-64 -190h124zM372 781v145h134v-145h-134zM146 781v145h134v-145h-134z" />
    <glyph glyph-name="Aring" unicode="&#xc5;" horiz-adv-x="653" 
d="M470 0l-33 106h-219l-35 -106h-183l259 712h135l259 -712h-183zM331 442l-64 -190h124zM326 755q-57 0 -97.5 40.5t-40.5 97.5t40.5 97.5t97.5 40.5t97.5 -40.5t40.5 -97.5t-40.5 -97.5t-97.5 -40.5zM326 945q-21 0 -36.5 -15.5t-15.5 -36.5t15.5 -36.5t36.5 -15.5
t36.5 15.5t15.5 36.5t-15.5 36.5t-36.5 15.5z" />
    <glyph glyph-name="AE" unicode="&#xc6;" horiz-adv-x="1013" 
d="M477 0v149h-212l-77 -149h-188l370 712h591v-156h-309v-119h264v-156h-264v-125h309v-156h-484zM477 556l-136 -261h136v261z" />
    <glyph glyph-name="Ccedilla" unicode="&#xc7;" horiz-adv-x="609" 
d="M319 -6q-118 0 -183 65t-76 126.5t-11 170.5q0 114 10.5 172.5t55.5 103.5t94.5 65.5t109.5 20.5q105 0 178 -59t92 -173h-178q-10 36 -30 56t-61 20q-24 0 -41 -7.5t-29 -23.5t-19 -51.5t-7 -123.5q0 -91 6 -123.5t25 -57.5t65 -25q40 0 60.5 20.5t30.5 55.5h178
q-19 -114 -91.5 -173t-178.5 -59zM349 -200h-146l67 144h115z" />
    <glyph glyph-name="Egrave" unicode="&#xc8;" horiz-adv-x="608" 
d="M72 0v712h484v-156h-309v-119h264v-156h-264v-125h309v-156h-484zM267 782l-118 180h168l49 -180h-99z" />
    <glyph glyph-name="Eacute" unicode="&#xc9;" horiz-adv-x="608" 
d="M72 0v712h484v-156h-309v-119h264v-156h-264v-125h309v-156h-484zM349 782h-99l49 180h168z" />
    <glyph glyph-name="Ecircumflex" unicode="&#xca;" horiz-adv-x="608" 
d="M72 0v712h484v-156h-309v-119h264v-156h-264v-125h309v-156h-484zM387 782l-79 83l-79 -83h-120l136 179h126l136 -179h-120z" />
    <glyph glyph-name="Edieresis" unicode="&#xcb;" horiz-adv-x="608" 
d="M72 0v712h484v-156h-309v-119h264v-156h-264v-125h309v-156h-484zM354 781v145h134v-145h-134zM128 781v145h134v-145h-134z" />
    <glyph glyph-name="Igrave" unicode="&#xcc;" horiz-adv-x="319" 
d="M72 0v712h175v-712h-175zM192 782l-118 180h168l49 -180h-99z" />
    <glyph glyph-name="Iacute" unicode="&#xcd;" horiz-adv-x="319" 
d="M72 0v712h175v-712h-175zM203 782h-99l49 180h168z" />
    <glyph glyph-name="Icircumflex" unicode="&#xce;" horiz-adv-x="319" 
d="M72 0v712h175v-712h-175zM350 782l-79 83l-79 -83h-120l136 179h126l136 -179h-120z" />
    <glyph glyph-name="Idieresis" unicode="&#xcf;" horiz-adv-x="319" 
d="M72 0v712h175v-712h-175zM298 781v145h134v-145h-134zM72 781v145h134v-145h-134z" />
    <glyph glyph-name="Ntilde" unicode="&#xd1;" horiz-adv-x="700" 
d="M475 0l-228 358v-358h-175v712h153l228 -358v358h175v-712h-153zM420 792q-24 0 -41.5 4.5t-43 19.5t-52.5 15q-17 0 -28.5 -4.5t-29.5 -22.5l-68 69q33 33 61 48t61 15q24 0 41.5 -4.5t43 -19.5t51.5 -15q17 0 28.5 4.5t29.5 22.5l70 -69q-32 -32 -61 -47.5t-62 -15.5z
" />
    <glyph glyph-name="apple" unicode="&#xd2;" horiz-adv-x="640" 
d="M519 74q-40 -40 -88 -60t-111 -20q-119 0 -184 65t-76 126.5t-11 170.5q0 114 10.5 172.5t56 104t93.5 65.5t111 20q119 0 184 -65t76 -126.5t11 -170.5q0 -114 -10.5 -172.5t-61.5 -109.5zM390 531q-10 14 -28.5 22.5t-41.5 8.5t-41 -8.5t-30.5 -24.5t-18.5 -49.5
t-6 -123.5t6 -123t18 -48.5t31 -25t41 -9.5q46 0 65 25t25 58t6 123q0 89 -6 123t-20 52zM279 782l-118 180h168l49 -180h-99z" />
    <glyph glyph-name="Oacute" unicode="&#xd3;" horiz-adv-x="640" 
d="M519 74q-40 -40 -88 -60t-111 -20q-119 0 -184 65t-76 126.5t-11 170.5q0 114 10.5 172.5t56 104t93.5 65.5t111 20q119 0 184 -65t76 -126.5t11 -170.5q0 -114 -10.5 -172.5t-61.5 -109.5zM390 531q-10 14 -28.5 22.5t-41.5 8.5t-41 -8.5t-30.5 -24.5t-18.5 -49.5
t-6 -123.5t6 -123t18 -48.5t31 -25t41 -9.5q46 0 65 25t25 58t6 123q0 89 -6 123t-20 52zM361 782h-99l49 180h168z" />
    <glyph glyph-name="Ocircumflex" unicode="&#xd4;" horiz-adv-x="640" 
d="M519 74q-40 -40 -88 -60t-111 -20q-119 0 -184 65t-76 126.5t-11 170.5q0 114 10.5 172.5t56 104t93.5 65.5t111 20q119 0 184 -65t76 -126.5t11 -170.5q0 -114 -10.5 -172.5t-61.5 -109.5zM390 531q-10 14 -28.5 22.5t-41.5 8.5t-41 -8.5t-30.5 -24.5t-18.5 -49.5
t-6 -123.5t6 -123t18 -48.5t31 -25t41 -9.5q46 0 65 25t25 58t6 123q0 89 -6 123t-20 52zM399 782l-79 83l-79 -83h-120l136 179h126l136 -179h-120z" />
    <glyph glyph-name="Otilde" unicode="&#xd5;" horiz-adv-x="640" 
d="M519 74q-40 -40 -88 -60t-111 -20q-119 0 -184 65t-76 126.5t-11 170.5q0 114 10.5 172.5t56 104t93.5 65.5t111 20q119 0 184 -65t76 -126.5t11 -170.5q0 -114 -10.5 -172.5t-61.5 -109.5zM390 531q-10 14 -28.5 22.5t-41.5 8.5t-41 -8.5t-30.5 -24.5t-18.5 -49.5
t-6 -123.5t6 -123t18 -48.5t31 -25t41 -9.5q46 0 65 25t25 58t6 123q0 89 -6 123t-20 52zM390 792q-24 0 -41.5 4.5t-43 19.5t-52.5 15q-17 0 -28.5 -4.5t-29.5 -22.5l-68 69q33 33 61 48t61 15q24 0 41.5 -4.5t43 -19.5t51.5 -15q17 0 28.5 4.5t29.5 22.5l70 -69
q-32 -32 -61 -47.5t-62 -15.5z" />
    <glyph glyph-name="Odieresis" unicode="&#xd6;" horiz-adv-x="640" 
d="M519 74q-40 -40 -88 -60t-111 -20q-119 0 -184 65t-76 126.5t-11 170.5q0 114 10.5 172.5t56 104t93.5 65.5t111 20q119 0 184 -65t76 -126.5t11 -170.5q0 -114 -10.5 -172.5t-61.5 -109.5zM390 531q-10 14 -28.5 22.5t-41.5 8.5t-41 -8.5t-30.5 -24.5t-18.5 -49.5
t-6 -123.5t6 -123t18 -48.5t31 -25t41 -9.5q46 0 65 25t25 58t6 123q0 89 -6 123t-20 52zM366 781v145h134v-145h-134zM140 781v145h134v-145h-134z" />
    <glyph glyph-name="Oslash" unicode="&#xd8;" horiz-adv-x="640" 
d="M519 74q-40 -40 -88 -60t-111 -20q-60 0 -105 18l-27 -56h-118l55 114l-4 4q-50 50 -61 111.5t-11 170.5q0 114 10.5 172.5t56 104t93.5 65.5t111 20q60 0 105 -18l27 56h118l-55 -114l4 -4q50 -50 61 -111.5t11 -170.5q0 -114 -10.5 -172.5t-61.5 -109.5zM320 562
q-23 0 -41 -8.5t-30.5 -24.5t-18.5 -49.5t-6 -123.5l3 -93l137 289q-20 10 -44 10zM413 449l-137 -288q19 -11 44 -11q46 0 65 25t25 58t6 123z" />
    <glyph glyph-name="Ucircumflex" unicode="&#xd9;" horiz-adv-x="660" 
d="M329 -6q-114 0 -191.5 70.5t-77.5 185.5v462h175v-458q0 -49 24.5 -76.5t69.5 -27.5q44 0 70 27t26 77v458h175v-462q0 -114 -78.5 -185t-192.5 -71zM289 782l-118 180h168l49 -180h-99z" />
    <glyph glyph-name="Ograve" unicode="&#xda;" horiz-adv-x="660" 
d="M329 -6q-114 0 -191.5 70.5t-77.5 185.5v462h175v-458q0 -49 24.5 -76.5t69.5 -27.5q44 0 70 27t26 77v458h175v-462q0 -114 -78.5 -185t-192.5 -71zM371 782h-99l49 180h168z" />
    <glyph glyph-name="Uacute" unicode="&#xdb;" horiz-adv-x="660" 
d="M329 -6q-114 0 -191.5 70.5t-77.5 185.5v462h175v-458q0 -49 24.5 -76.5t69.5 -27.5q44 0 70 27t26 77v458h175v-462q0 -114 -78.5 -185t-192.5 -71zM409 782l-79 83l-79 -83h-120l136 179h126l136 -179h-120z" />
    <glyph glyph-name="Udieresis" unicode="&#xdc;" horiz-adv-x="660" 
d="M329 -6q-114 0 -191.5 70.5t-77.5 185.5v462h175v-458q0 -49 24.5 -76.5t69.5 -27.5q44 0 70 27t26 77v458h175v-462q0 -114 -78.5 -185t-192.5 -71zM376 781v145h134v-145h-134zM150 781v145h134v-145h-134z" />
    <glyph glyph-name="germandbls" unicode="&#xdf;" horiz-adv-x="584" 
d="M492 45q-22 -22 -56 -33.5t-82 -11.5h-52v138h19q23 0 35.5 12t12.5 36v129q0 23 -12 35.5t-36 12.5h-19v126h23q19 0 31.5 9t12.5 33q0 18 -14.5 31t-52.5 13q-42 0 -58.5 -16.5t-16.5 -53.5v-505h-165v519q0 103 66 151t174 48q107 0 169.5 -45t62.5 -136
q0 -44 -17 -69t-44 -40q28 -14 44.5 -36.5t16.5 -66.5v-152q0 -85 -42 -128z" />
    <glyph glyph-name="agrave" unicode="&#xe0;" horiz-adv-x="536" 
d="M323 0v44q-26 -26 -52 -37.5t-68 -11.5q-81 0 -116 35t-47.5 68t-12.5 71q0 66 46 111t137 45h109v14q0 36 -18.5 51.5t-62.5 15.5q-31 0 -48 -7.5t-38 -28.5l-102 102q40 40 84 56t112 16q237 0 237 -195v-349h-160zM319 216h-83q-24 0 -38 -12t-14 -31t14 -32t40 -13
q27 0 39 3.5t27 17.5t15 53v14zM225 610l-118 180h168l49 -180h-99z" />
    <glyph glyph-name="aacute" unicode="&#xe1;" horiz-adv-x="536" 
d="M323 0v44q-26 -26 -52 -37.5t-68 -11.5q-81 0 -116 35t-47.5 68t-12.5 71q0 66 46 111t137 45h109v14q0 36 -18.5 51.5t-62.5 15.5q-31 0 -48 -7.5t-38 -28.5l-102 102q40 40 84 56t112 16q237 0 237 -195v-349h-160zM319 216h-83q-24 0 -38 -12t-14 -31t14 -32t40 -13
q27 0 39 3.5t27 17.5t15 53v14zM307 610h-99l49 180h168z" />
    <glyph glyph-name="acircumflex" unicode="&#xe2;" horiz-adv-x="536" 
d="M323 0v44q-26 -26 -52 -37.5t-68 -11.5q-81 0 -116 35t-47.5 68t-12.5 71q0 66 46 111t137 45h109v14q0 36 -18.5 51.5t-62.5 15.5q-31 0 -48 -7.5t-38 -28.5l-102 102q40 40 84 56t112 16q237 0 237 -195v-349h-160zM319 216h-83q-24 0 -38 -12t-14 -31t14 -32t40 -13
q27 0 39 3.5t27 17.5t15 53v14zM345 610l-79 83l-79 -83h-120l136 179h126l136 -179h-120z" />
    <glyph glyph-name="atilde" unicode="&#xe3;" horiz-adv-x="536" 
d="M323 0v44q-26 -26 -52 -37.5t-68 -11.5q-81 0 -116 35t-47.5 68t-12.5 71q0 66 46 111t137 45h109v14q0 36 -18.5 51.5t-62.5 15.5q-31 0 -48 -7.5t-38 -28.5l-102 102q40 40 84 56t112 16q237 0 237 -195v-349h-160zM319 216h-83q-24 0 -38 -12t-14 -31t14 -32t40 -13
q27 0 39 3.5t27 17.5t15 53v14zM336 620q-24 0 -41.5 4.5t-43 19.5t-52.5 15q-17 0 -28.5 -4.5t-29.5 -22.5l-68 69q33 33 61 48t61 15q24 0 41.5 -4.5t43 -19.5t51.5 -15q17 0 28.5 4.5t29.5 22.5l70 -69q-32 -32 -61 -47.5t-62 -15.5z" />
    <glyph glyph-name="adieresis" unicode="&#xe4;" horiz-adv-x="536" 
d="M323 0v44q-26 -26 -52 -37.5t-68 -11.5q-81 0 -116 35t-47.5 68t-12.5 71q0 66 46 111t137 45h109v14q0 36 -18.5 51.5t-62.5 15.5q-31 0 -48 -7.5t-38 -28.5l-102 102q40 40 84 56t112 16q237 0 237 -195v-349h-160zM319 216h-83q-24 0 -38 -12t-14 -31t14 -32t40 -13
q27 0 39 3.5t27 17.5t15 53v14zM312 609v145h134v-145h-134zM86 609v145h134v-145h-134z" />
    <glyph glyph-name="aring" unicode="&#xe5;" horiz-adv-x="536" 
d="M323 0v44q-26 -26 -52 -37.5t-68 -11.5q-81 0 -116 35t-47.5 68t-12.5 71q0 66 46 111t137 45h109v14q0 36 -18.5 51.5t-62.5 15.5q-31 0 -48 -7.5t-38 -28.5l-102 102q40 40 84 56t112 16q237 0 237 -195v-349h-160zM319 216h-83q-24 0 -38 -12t-14 -31t14 -32t40 -13
q27 0 39 3.5t27 17.5t15 53v14zM266 593q-57 0 -97.5 40.5t-40.5 97.5t40.5 97.5t97.5 40.5t97.5 -40.5t40.5 -97.5t-40.5 -97.5t-97.5 -40.5zM266 783q-21 0 -36.5 -15.5t-15.5 -36.5t15.5 -36.5t36.5 -15.5t36.5 15.5t15.5 36.5t-15.5 36.5t-36.5 15.5z" />
    <glyph glyph-name="ae" unicode="&#xe6;" horiz-adv-x="840" 
d="M480 216q0 -35 25.5 -59.5t69.5 -24.5q42 0 64 10t47 35l98 -98q-44 -44 -90.5 -64.5t-118.5 -20.5q-56 0 -104 14.5t-84 50.5q-45 -41 -85 -53t-99 -12q-80 0 -115.5 35.5t-48 68.5t-12.5 71q0 66 46 111t137 45h109v14q0 36 -18.5 51.5t-62.5 15.5q-31 0 -48 -7.5
t-38 -28.5l-102 102q40 40 84 56t112 16q111 0 170 -45q59 45 144 45q113 0 177.5 -72.5t64.5 -182.5v-73h-322zM631 367q-9 20 -25.5 31t-45.5 11q-28 0 -45.5 -11.5t-26 -30t-8.5 -42.5h160q0 15 -1.5 22.5t-7.5 19.5zM319 216h-83q-24 0 -38 -12t-14 -31t14 -32t40 -13
q27 0 39 3.5t27 17.5t15 53v14z" />
    <glyph glyph-name="ccedilla" unicode="&#xe7;" horiz-adv-x="475" 
d="M280 -6q-95 0 -168.5 59t-73.5 216q0 156 74 215.5t168 59.5q55 0 99 -17.5t78 -51.5l-111 -111q-16 16 -31 24t-35 8q-30 0 -54 -24.5t-24 -102.5q0 -40 6.5 -65.5t24 -43.5t47.5 -18q34 0 66 32l111 -111q-34 -34 -77.5 -51.5t-99.5 -17.5zM297 -200h-146l67 144h115z
" />
    <glyph glyph-name="egrave" unicode="&#xe8;" horiz-adv-x="559" 
d="M199 216q0 -35 25.5 -59.5t69.5 -24.5q42 0 64 10t47 35l98 -98q-44 -44 -90.5 -64.5t-118.5 -20.5q-111 0 -183.5 58.5t-72.5 216.5q0 129 66.5 202t174.5 73q113 0 177.5 -72.5t64.5 -182.5v-73h-322zM350 367q-9 20 -25.5 31t-45.5 11q-28 0 -45.5 -11.5t-26 -30
t-8.5 -42.5h160q0 15 -1.5 22.5t-7.5 19.5zM242 610l-118 180h168l49 -180h-99z" />
    <glyph glyph-name="eacute" unicode="&#xe9;" horiz-adv-x="559" 
d="M199 216q0 -35 25.5 -59.5t69.5 -24.5q42 0 64 10t47 35l98 -98q-44 -44 -90.5 -64.5t-118.5 -20.5q-111 0 -183.5 58.5t-72.5 216.5q0 129 66.5 202t174.5 73q113 0 177.5 -72.5t64.5 -182.5v-73h-322zM350 367q-9 20 -25.5 31t-45.5 11q-28 0 -45.5 -11.5t-26 -30
t-8.5 -42.5h160q0 15 -1.5 22.5t-7.5 19.5zM324 610h-99l49 180h168z" />
    <glyph glyph-name="ecircumflex" unicode="&#xea;" horiz-adv-x="559" 
d="M199 216q0 -35 25.5 -59.5t69.5 -24.5q42 0 64 10t47 35l98 -98q-44 -44 -90.5 -64.5t-118.5 -20.5q-111 0 -183.5 58.5t-72.5 216.5q0 129 66.5 202t174.5 73q113 0 177.5 -72.5t64.5 -182.5v-73h-322zM350 367q-9 20 -25.5 31t-45.5 11q-28 0 -45.5 -11.5t-26 -30
t-8.5 -42.5h160q0 15 -1.5 22.5t-7.5 19.5zM362 610l-79 83l-79 -83h-120l136 179h126l136 -179h-120z" />
    <glyph glyph-name="edieresis" unicode="&#xeb;" horiz-adv-x="559" 
d="M199 216q0 -35 25.5 -59.5t69.5 -24.5q42 0 64 10t47 35l98 -98q-44 -44 -90.5 -64.5t-118.5 -20.5q-111 0 -183.5 58.5t-72.5 216.5q0 129 66.5 202t174.5 73q113 0 177.5 -72.5t64.5 -182.5v-73h-322zM350 367q-9 20 -25.5 31t-45.5 11q-28 0 -45.5 -11.5t-26 -30
t-8.5 -42.5h160q0 15 -1.5 22.5t-7.5 19.5zM329 609v145h134v-145h-134zM103 609v145h134v-145h-134z" />
    <glyph glyph-name="igrave" unicode="&#xec;" horiz-adv-x="288" 
d="M62 0v538h164v-538h-164zM182 610l-118 180h168l49 -180h-99z" />
    <glyph glyph-name="iacute" unicode="&#xed;" horiz-adv-x="288" 
d="M62 0v538h164v-538h-164zM169 610h-99l49 180h168z" />
    <glyph glyph-name="icircumflex" unicode="&#xee;" horiz-adv-x="288" 
d="M62 0v538h164v-538h-164zM340 610l-79 83l-79 -83h-120l136 179h126l136 -179h-120z" />
    <glyph glyph-name="idieresis" unicode="&#xef;" horiz-adv-x="288" 
d="M62 0v538h164v-538h-164zM290 609v145h134v-145h-134zM64 609v145h134v-145h-134z" />
    <glyph glyph-name="ntilde" unicode="&#xf1;" horiz-adv-x="579" 
d="M358 0v322q0 41 -21 57.5t-45 16.5t-45 -16.5t-21 -57.5v-322h-164v538h160v-44q23 23 57 36.5t68 13.5q38 0 68 -11.5t57.5 -39t38.5 -64t11 -85.5v-344h-164zM362 620q-24 0 -41.5 4.5t-43 19.5t-52.5 15q-17 0 -28.5 -4.5t-29.5 -22.5l-68 69q33 33 61 48t61 15
q24 0 41.5 -4.5t43 -19.5t51.5 -15q17 0 28.5 4.5t29.5 22.5l70 -69q-32 -32 -61 -47.5t-62 -15.5z" />
    <glyph glyph-name="ograve" unicode="&#xf2;" horiz-adv-x="550" 
d="M448 63q-28 -30 -70.5 -49.5t-102.5 -19.5q-61 0 -102.5 19t-72.5 52.5t-44 78.5t-13 125q0 81 12 124.5t43.5 77.5t74 53.5t102.5 19.5q61 0 102.5 -19t72.5 -52.5t44 -79.5t13 -124q0 -81 -12 -124.5t-47 -81.5zM319 381q-15 15 -44 15t-44 -15t-19.5 -40.5t-4.5 -71.5
q0 -45 4.5 -71t19.5 -41t44 -15t44 15t19.5 40.5t4.5 71.5q0 45 -4.5 71t-19.5 41zM234 610l-118 180h168l49 -180h-99z" />
    <glyph glyph-name="oacute" unicode="&#xf3;" horiz-adv-x="550" 
d="M448 63q-28 -30 -70.5 -49.5t-102.5 -19.5q-61 0 -102.5 19t-72.5 52.5t-44 78.5t-13 125q0 81 12 124.5t43.5 77.5t74 53.5t102.5 19.5q61 0 102.5 -19t72.5 -52.5t44 -79.5t13 -124q0 -81 -12 -124.5t-47 -81.5zM319 381q-15 15 -44 15t-44 -15t-19.5 -40.5t-4.5 -71.5
q0 -45 4.5 -71t19.5 -41t44 -15t44 15t19.5 40.5t4.5 71.5q0 45 -4.5 71t-19.5 41zM316 610h-99l49 180h168z" />
    <glyph glyph-name="ocircumflex" unicode="&#xf4;" horiz-adv-x="550" 
d="M448 63q-28 -30 -70.5 -49.5t-102.5 -19.5q-61 0 -102.5 19t-72.5 52.5t-44 78.5t-13 125q0 81 12 124.5t43.5 77.5t74 53.5t102.5 19.5q61 0 102.5 -19t72.5 -52.5t44 -79.5t13 -124q0 -81 -12 -124.5t-47 -81.5zM319 381q-15 15 -44 15t-44 -15t-19.5 -40.5t-4.5 -71.5
q0 -45 4.5 -71t19.5 -41t44 -15t44 15t19.5 40.5t4.5 71.5q0 45 -4.5 71t-19.5 41zM354 610l-79 83l-79 -83h-120l136 179h126l136 -179h-120z" />
    <glyph glyph-name="otilde" unicode="&#xf5;" horiz-adv-x="550" 
d="M448 63q-28 -30 -70.5 -49.5t-102.5 -19.5q-61 0 -102.5 19t-72.5 52.5t-44 78.5t-13 125q0 81 12 124.5t43.5 77.5t74 53.5t102.5 19.5q61 0 102.5 -19t72.5 -52.5t44 -79.5t13 -124q0 -81 -12 -124.5t-47 -81.5zM319 381q-15 15 -44 15t-44 -15t-19.5 -40.5t-4.5 -71.5
q0 -45 4.5 -71t19.5 -41t44 -15t44 15t19.5 40.5t4.5 71.5q0 45 -4.5 71t-19.5 41zM345 620q-24 0 -41.5 4.5t-43 19.5t-52.5 15q-17 0 -28.5 -4.5t-29.5 -22.5l-68 69q33 33 61 48t61 15q24 0 41.5 -4.5t43 -19.5t51.5 -15q17 0 28.5 4.5t29.5 22.5l70 -69
q-32 -32 -61 -47.5t-62 -15.5z" />
    <glyph glyph-name="odieresis" unicode="&#xf6;" horiz-adv-x="550" 
d="M448 63q-28 -30 -70.5 -49.5t-102.5 -19.5q-61 0 -102.5 19t-72.5 52.5t-44 78.5t-13 125q0 81 12 124.5t43.5 77.5t74 53.5t102.5 19.5q61 0 102.5 -19t72.5 -52.5t44 -79.5t13 -124q0 -81 -12 -124.5t-47 -81.5zM319 381q-15 15 -44 15t-44 -15t-19.5 -40.5t-4.5 -71.5
q0 -45 4.5 -71t19.5 -41t44 -15t44 15t19.5 40.5t4.5 71.5q0 45 -4.5 71t-19.5 41zM321 609v145h134v-145h-134zM95 609v145h134v-145h-134z" />
    <glyph glyph-name="divide" unicode="&#xf7;" 
d="M200 434v156h156v-156h-156zM43 218v154h470v-154h-470zM200 0v156h156v-156h-156z" />
    <glyph glyph-name="oslash" unicode="&#xf8;" horiz-adv-x="550" 
d="M448 63q-28 -30 -70.5 -49.5t-102.5 -19.5q-32 0 -56 5t-48 15l-34 -58h-93l61 104q-40 42 -51 88.5t-11 120.5q0 81 12 124.5t43.5 77.5t74 53.5t102.5 19.5q32 0 56 -5t48 -15l34 58h93l-61 -104q40 -42 51 -88t11 -121q0 -81 -12 -124.5t-47 -81.5zM275 396
q-29 0 -44 -15t-19.5 -40.5t-4.5 -71.5v-25.5t2 -24.5l100 170q-13 7 -34 7zM341 319l-100 -170q13 -7 34 -7q29 0 44 15t19.5 40.5t4.5 71.5v20v16q-2 10 -2 14z" />
    <glyph glyph-name="ugrave" unicode="&#xf9;" horiz-adv-x="579" 
d="M357 0v44q-23 -23 -57 -36.5t-68 -13.5q-38 0 -68 11.5t-57.5 39t-38.5 64t-11 85.5v344h164v-322q0 -41 21 -57.5t45 -16.5t45 16.5t21 57.5v322h164v-538h-160zM246 610l-118 180h168l49 -180h-99z" />
    <glyph glyph-name="uacute" unicode="&#xfa;" horiz-adv-x="579" 
d="M357 0v44q-23 -23 -57 -36.5t-68 -13.5q-38 0 -68 11.5t-57.5 39t-38.5 64t-11 85.5v344h164v-322q0 -41 21 -57.5t45 -16.5t45 16.5t21 57.5v322h164v-538h-160zM328 610h-99l49 180h168z" />
    <glyph glyph-name="ucircumflex" unicode="&#xfb;" horiz-adv-x="579" 
d="M357 0v44q-23 -23 -57 -36.5t-68 -13.5q-38 0 -68 11.5t-57.5 39t-38.5 64t-11 85.5v344h164v-322q0 -41 21 -57.5t45 -16.5t45 16.5t21 57.5v322h164v-538h-160zM366 610l-79 83l-79 -83h-120l136 179h126l136 -179h-120z" />
    <glyph glyph-name="udieresis" unicode="&#xfc;" horiz-adv-x="579" 
d="M357 0v44q-23 -23 -57 -36.5t-68 -13.5q-38 0 -68 11.5t-57.5 39t-38.5 64t-11 85.5v344h164v-322q0 -41 21 -57.5t45 -16.5t45 16.5t21 57.5v322h164v-538h-160zM333 609v145h134v-145h-134zM107 609v145h134v-145h-134z" />
    <glyph glyph-name="ydieresis" unicode="&#xff;" horiz-adv-x="514" 
d="M299 -64q-16 -45 -40.5 -70t-54.5 -35.5t-68 -10.5h-62v148h35q23 0 35 7.5t20 32.5l15 45l-179 485h172l91 -279l87 279h172zM303 609v145h134v-145h-134zM77 609v145h134v-145h-134z" />
    <glyph glyph-name="Ugrave" unicode="&#x131;" horiz-adv-x="288" 
d="M62 0v538h164v-538h-164z" />
    <glyph glyph-name="OE" unicode="&#x152;" horiz-adv-x="952" 
d="M416 0v26q-19 -18 -46 -25t-56 -7q-65 0 -109 18t-88 62t-56 110t-12 172q0 112 11.5 174.5t55.5 106.5t89.5 62.5t109.5 18.5q28 0 54.5 -7t46.5 -25v26h484v-156h-309v-119h264v-156h-264v-125h309v-156h-484zM390 531q-10 14 -28.5 22.5t-41.5 8.5t-41 -8.5
t-30.5 -24.5t-18.5 -49.5t-6 -123.5t6 -123t18 -48.5t31 -25t41 -9.5q46 0 65 25t25 58t6 123q0 89 -6 123t-20 52z" />
    <glyph glyph-name="oe" unicode="&#x153;" horiz-adv-x="864" 
d="M504 216q0 -35 25.5 -59.5t69.5 -24.5q42 0 64 10t47 35l98 -98q-44 -44 -90.5 -64.5t-118.5 -20.5q-50 0 -93.5 11t-77.5 39q-27 -22 -65 -36t-88 -14q-61 0 -102.5 19t-72.5 52.5t-44 78.5t-13 125q0 81 12 124.5t43.5 77.5t74 53.5t102.5 19.5q50 0 89 -14.5t67 -38.5
q61 53 153 53q113 0 177.5 -72.5t64.5 -182.5v-73h-322zM655 367q-9 20 -25.5 31t-45.5 11q-28 0 -45.5 -11.5t-26 -30t-8.5 -42.5h160q0 15 -1.5 22.5t-7.5 19.5zM319 381q-15 15 -44 15t-44 -15t-19.5 -40.5t-4.5 -71.5q0 -45 4.5 -71t19.5 -41t44 -15t44 15t19.5 40.5
t4.5 71.5q0 45 -4.5 71t-19.5 41z" />
    <glyph glyph-name="Ydieresis" unicode="&#x178;" horiz-adv-x="605" 
d="M390 290v-290h-175v290l-215 422h191l112 -256l111 256h191zM348 781v145h134v-145h-134zM122 781v145h134v-145h-134z" />
    <glyph glyph-name="florin" unicode="&#x192;" horiz-adv-x="441" 
d="M331 585q-33 0 -39 -33l-26 -148h90v-126h-112l-80 -452h-164l80 452h-49v126h71l28 160q11 64 61.5 111.5t133.5 47.5l86 -1v-137h-80z" />
    <glyph glyph-name="dotlessi" unicode="&#x2c6;" horiz-adv-x="500" 
d="M329 610l-79 83l-79 -83h-120l136 179h126l136 -179h-120z" />
    <glyph glyph-name="ogonek" unicode="&#x2c7;" horiz-adv-x="500" 
d="M313 610h-126l-136 179h120l79 -83l79 83h120z" />
    <glyph glyph-name="macron" unicode="&#x2d8;" horiz-adv-x="500" 
d="M250 593q-67 0 -115.5 37.5t-48.5 119.5h106q0 -25 17.5 -36t40.5 -11t40.5 10.5t17.5 36.5h106q0 -82 -48 -119.5t-116 -37.5z" />
    <glyph glyph-name="breve" unicode="&#x2d9;" horiz-adv-x="500" 
d="M168 593v125h164v-125h-164z" />
    <glyph glyph-name="dotaccent" unicode="&#x2da;" horiz-adv-x="500" 
d="M250 593q-57 0 -97.5 40.5t-40.5 97.5t40.5 97.5t97.5 40.5t97.5 -40.5t40.5 -97.5t-40.5 -97.5t-97.5 -40.5zM250 783q-21 0 -36.5 -15.5t-15.5 -36.5t15.5 -36.5t36.5 -15.5t36.5 15.5t15.5 36.5t-15.5 36.5t-36.5 15.5z" />
    <glyph glyph-name="hungarumlaut" unicode="&#x2db;" horiz-adv-x="500" 
d="M195 -200l-36 144h115l67 -144h-146z" />
    <glyph glyph-name="circumflex" unicode="&#x2dc;" horiz-adv-x="500" 
d="M320 620q-24 0 -41.5 4.5t-43 19.5t-52.5 15q-17 0 -28.5 -4.5t-29.5 -22.5l-68 69q33 33 61 48t61 15q24 0 41.5 -4.5t43 -19.5t51.5 -15q17 0 28.5 4.5t29.5 22.5l70 -69q-32 -32 -61 -47.5t-62 -15.5z" />
    <glyph glyph-name="cedilla" unicode="&#x2dd;" horiz-adv-x="500" 
d="M357 610h-99l49 180h168zM125 610h-100l49 180h168z" />
    <glyph glyph-name="pi" unicode="&#x3c0;" horiz-adv-x="592" 
d="M366 0v382h-140v-382h-164v538h468v-538h-164z" />
    <glyph glyph-name="endash" unicode="&#x2013;" 
d="M49 218v154h458v-154h-458z" />
    <glyph glyph-name="emdash" unicode="&#x2014;" horiz-adv-x="1093" 
d="M49 220v158h995v-158h-995z" />
    <glyph glyph-name="quoteleft" unicode="&#x2018;" horiz-adv-x="278" 
d="M57 566v146l164 120v-266h-164z" />
    <glyph glyph-name="quoteright" unicode="&#x2019;" horiz-adv-x="278" 
d="M57 447v265h164v-147z" />
    <glyph glyph-name="quotesinglbase" unicode="&#x201a;" horiz-adv-x="276" 
d="M57 -118v265h164v-147z" />
    <glyph glyph-name="quotedblleft" unicode="&#x201c;" horiz-adv-x="511" 
d="M290 566v146l164 120v-266h-164zM57 566v146l163 120v-266h-163z" />
    <glyph glyph-name="quotedblright" unicode="&#x201d;" horiz-adv-x="511" 
d="M290 447v265h164v-147zM57 447v265h163v-147z" />
    <glyph glyph-name="quotedblbase" unicode="&#x201e;" horiz-adv-x="514" 
d="M290 -118v265h164v-147zM57 -118v265h163v-147z" />
    <glyph glyph-name="dagger" unicode="&#x2020;" horiz-adv-x="564" 
d="M364 390v-390h-164v390h-153v148h153v174h164v-174h153v-148h-153z" />
    <glyph glyph-name="daggerdbl" unicode="&#x2021;" horiz-adv-x="564" 
d="M364 0v-174h-164v174h-153v148h153v242h-153v148h153v174h164v-174h153v-148h-153v-242h153v-148h-153z" />
    <glyph glyph-name="bullet" unicode="&#x2022;" horiz-adv-x="470" 
d="M235 171q-68 0 -115.5 47.5t-47.5 115.5t47.5 115.5t115.5 47.5t115.5 -47.5t47.5 -115.5t-47.5 -115.5t-115.5 -47.5z" />
    <glyph glyph-name="ellipsis" unicode="&#x2026;" horiz-adv-x="899" 
d="M672 0v170h170v-170h-170zM364 0v170h170v-170h-170zM57 0v170h170v-170h-170z" />
    <glyph glyph-name="perthousand" unicode="&#x2030;" horiz-adv-x="1229" 
d="M1033 -6q-65 0 -108 35.5t-43 103.5v95q0 67 43.5 103t107.5 36q65 0 108 -35.5t43 -103.5v-95q0 -67 -43.5 -103t-107.5 -36zM661 -6q-65 0 -108 35.5t-43 103.5v95q0 67 43.5 103t107.5 36q65 0 108 -35.5t43 -103.5v-95q0 -67 -43.5 -103t-107.5 -36zM322 0h-126
l339 712h126zM196 345q-65 0 -108 35.5t-43 103.5v95q0 67 43.5 103t107.5 36q65 0 108 -35.5t43 -103.5v-95q0 -67 -43.5 -103t-107.5 -36zM1068 224q0 20 -9.5 29.5t-25.5 9.5q-17 0 -26 -8.5t-9 -30.5v-87q0 -20 9.5 -29.5t25.5 -9.5q17 0 26 8.5t9 30.5v87zM696 224
q0 20 -9.5 29.5t-25.5 9.5q-17 0 -26 -8.5t-9 -30.5v-87q0 -20 9.5 -29.5t25.5 -9.5q17 0 26 8.5t9 30.5v87zM231 575q0 20 -9.5 29.5t-25.5 9.5q-17 0 -26 -8.5t-9 -30.5v-87q0 -20 9.5 -29.5t25.5 -9.5q17 0 26 8.5t9 30.5v87z" />
    <glyph glyph-name="guilsinglleft" unicode="&#x2039;" horiz-adv-x="363" 
d="M30 280l273 270v-193l-79 -77l79 -78v-193z" />
    <glyph glyph-name="guilsinglright" unicode="&#x203a;" horiz-adv-x="363" 
d="M60 9v193l80 78l-80 77v193l273 -270z" />
    <glyph glyph-name="fraction" unicode="&#x2044;" horiz-adv-x="221" 
d="M4 0h-126l339 712h126z" />
    <glyph glyph-name="trademark" unicode="&#x2122;" horiz-adv-x="973" 
d="M789 285v219l-67 -131h-100l-67 131v-219h-117v427h117l117 -210l117 210h117v-427h-117zM272 608v-323h-116v323h-105v104h326v-104h-105z" />
    <glyph glyph-name="Omega" unicode="&#x2126;" horiz-adv-x="640" 
d="M358 0v136q21 10 33.5 26.5t18.5 54.5t6 129q0 90 -6.5 127.5t-18.5 53.5t-30 25.5t-41 9.5t-41 -9.5t-30.5 -25.5t-18.5 -53t-6 -128q0 -90 6.5 -129t18.5 -55t33 -26v-136h-233v156h45q-9 11 -15 22.5t-13 33t-12 63t-5 81.5q0 114 10.5 172.5t56 104t93.5 65.5t111 20
q119 0 184 -65t76 -126.5t11 -170.5q0 -46 -4 -81.5t-14.5 -66.5t-26.5 -52h45v-156h-233z" />
    <glyph glyph-name="partialdiff" unicode="&#x2202;" horiz-adv-x="561" 
d="M442 60q-27 -28 -68 -47t-99 -19q-59 0 -99 18t-70.5 50.5t-42.5 75t-12 121.5q0 76 12 120.5t42.5 77t68.5 50t97 17.5q20 0 34.5 -2.5t28.5 -9.5q0 18 -20 43t-66 25q-30 0 -51.5 -7.5t-40.5 -26.5l-102 102q38 38 87 54t115 16q119 0 181 -68t62 -181v-210
q0 -77 -12 -120.5t-45 -78.5zM314 362q-14 14 -39 14t-38 -13t-17.5 -39t-4.5 -65q0 -45 3.5 -67t17.5 -36t39 -14t38 13t17.5 39t4.5 65q0 45 -3.5 67t-17.5 36z" />
    <glyph glyph-name="Delta" unicode="&#x2206;" horiz-adv-x="653" 
d="M0 0l259 712h135l259 -712h-653zM331 442l-99 -296h192z" />
    <glyph glyph-name="product" unicode="&#x220f;" horiz-adv-x="680" 
d="M433 -174v779h-186v-779h-175v934h536v-934h-175z" />
    <glyph glyph-name="summation" unicode="&#x2211;" horiz-adv-x="553" 
d="M30 -176v136l181 342l-177 322v136h484v-156h-278l118 -224v-163l-126 -237h291v-156h-493z" />
    <glyph glyph-name="radical" unicode="&#x221a;" horiz-adv-x="616" 
d="M492 556l-184 -556h-130l-178 538h177l67 -224l118 398h224v-156h-94z" />
    <glyph glyph-name="infinity" unicode="&#x221e;" horiz-adv-x="876" 
d="M620 89q-52 0 -98 23.5t-84 64.5q-37 -40 -83 -64t-99 -24q-101 0 -155 58t-54 148q0 91 53 148.5t156 57.5q52 0 98 -23.5t84 -64.5q37 40 83 64t99 24q101 0 155 -58t54 -148q0 -91 -53 -148.5t-156 -57.5zM621 339q-22 0 -37.5 -15t-31.5 -34q19 -23 34.5 -36
t34.5 -13t33.5 12.5t14.5 36.5q0 23 -14 36t-34 13zM255 339q-19 0 -33.5 -12.5t-14.5 -36.5q0 -23 14 -36t34 -13q22 0 37.5 15t31.5 34q-19 23 -34.5 36t-34.5 13z" />
    <glyph glyph-name="integral" unicode="&#x222b;" horiz-adv-x="560" 
d="M435 592q-33 0 -51 -16t-18 -50v-488q0 -98 -61.5 -151.5t-162.5 -53.5h-73v138h55q33 0 51 16t18 50v488q0 98 61.5 151.5t162.5 53.5h73v-138h-55z" />
    <glyph glyph-name="approxequal" unicode="&#x2248;" horiz-adv-x="646" 
d="M429 312q-38 0 -62.5 6.5t-54 24t-48.5 23t-42 5.5t-43.5 -8.5t-44.5 -32.5l-104 104q51 51 92.5 73.5t92.5 22.5q38 0 62.5 -6.5t54 -24t48.5 -23t42 -5.5t43.5 8.5t44.5 32.5l106 -104q-51 -51 -93.5 -73.5t-93.5 -22.5zM431 58q-38 0 -62.5 6.5t-54 24t-48.5 23
t-42 5.5t-43.5 -8.5t-44.5 -32.5l-106 104q51 51 93.5 73.5t93.5 22.5q38 0 62.5 -6.5t54 -24t48.5 -23t42 -5.5t43.5 8.5t44.5 32.5l104 -104q-51 -51 -92.5 -73.5t-92.5 -22.5z" />
    <glyph glyph-name="notequal" unicode="&#x2260;" horiz-adv-x="640" 
d="M251 96l-103 -140l-99 74l48 66h-48v154h161l66 90h-227v154h340l103 140l99 -74l-48 -66h48v-154h-161l-66 -90h227v-154h-340z" />
    <glyph glyph-name="lessequal" unicode="&#x2264;" horiz-adv-x="1027" 
d="M788 -89l-462 462l2 -427l-145 145v534h534l145 -145l-427 2l462 -462z" />
    <glyph glyph-name="greaterequal" unicode="&#x2265;" horiz-adv-x="1027" 
d="M698 -53l3 427l-463 -463l-109 109l463 463l-427 -3l145 145h533v-533z" />
    <glyph glyph-name="lozenge" unicode="&#x25ca;" horiz-adv-x="628" 
d="M314 -34l-267 368l267 368l267 -368zM314 446l-82 -112l82 -112l82 112z" />
    <glyph glyph-name="fi" unicode="&#xfb01;" horiz-adv-x="626" 
d="M400 593v125h164v-125h-164zM400 0v517h164v-517h-164zM238 391v-391h-164v391h-49v126h49v47q0 64 42 111.5t125 47.5h87v-138h-57q-33 0 -33 -33v-35h90v-126h-90z" />
    <glyph glyph-name="fl" unicode="&#xfb02;" horiz-adv-x="674" 
d="M567 0q-83 0 -125 47.5t-42 111.5v553h164v-541q0 -33 33 -33h57v-138h-87zM238 391v-391h-164v391h-49v126h49v47q0 64 42 111.5t125 47.5h87v-138h-57q-33 0 -33 -33v-35h90v-126h-90z" />
    <glyph glyph-name="caron" horiz-adv-x="599" 
d="M95 0v217l-60 -38v146l60 38v349h175v-239l113 71v-145l-113 -71v-172h299v-156h-474z" />
    <glyph glyph-name="Lslash" horiz-adv-x="348" 
d="M241 0q-83 0 -125 47.5t-42 111.5v120l-49 -30v137l49 30v296h164v-198l49 30v-137l-49 -30v-206q0 -33 33 -33h57v-138h-87z" />
    <glyph glyph-name="lslash" horiz-adv-x="593" 
d="M275 -6q-89 0 -153.5 20.5t-116.5 73.5l112 112q26 -26 68.5 -38t90.5 -12q102 0 102 64q0 27 -10.5 38t-21.5 16t-29 7l-86 12q-95 14 -143.5 63.5t-48.5 142.5q0 99 70 162t190 63q79 0 136.5 -19.5t103.5 -65.5l-110 -110q-20 20 -49 31t-73 11h-13q-43 0 -64.5 -19.5
t-21.5 -46.5q0 -11 3.5 -18.5t11 -15t18.5 -13t30 -7.5l86 -12q94 -13 131 -49.5t49.5 -75t12.5 -90.5q0 -104 -78.5 -164t-196.5 -60zM360 782h-126l-136 179h120l79 -83l79 83h120z" />
    <glyph glyph-name="Scaron" horiz-adv-x="504" 
d="M244 -6q-78 0 -130.5 13.5t-103.5 64.5l106 106q23 -23 53 -34t78 -11q24 0 47 8t23 27q0 13 -8.5 22.5t-30.5 11.5l-83 8q-74 7 -115 44t-41 112q0 84 64 131t150 47q72 0 123 -14t89 -52l-101 -101q-18 18 -47.5 25t-66.5 7q-26 0 -39.5 -10t-13.5 -21q0 -7 3 -17
t32 -13l83 -8q81 -8 121.5 -52.5t40.5 -111.5q0 -90 -66 -136t-167 -46zM316 610h-126l-136 179h120l79 -83l79 83h120z" />
    <glyph glyph-name="scaron" horiz-adv-x="543" 
d="M30 0v136l273 420h-261v156h471v-136l-274 -420h274v-156h-483zM336 782h-126l-136 179h120l79 -83l79 83h120z" />
    <glyph glyph-name="Zcaron" horiz-adv-x="489" 
d="M30 0v121l205 269h-193v148h407v-121l-209 -269h209v-148h-419zM310 610h-126l-136 179h120l79 -83l79 83h120z" />
    <glyph glyph-name="zcaron" horiz-adv-x="364" 
d="M100 436v350h164v-350h-164zM100 -74v350h164v-350h-164z" />
    <glyph glyph-name="brokenbar" horiz-adv-x="679" 
d="M556 70q-35 -35 -85 -52.5t-107 -17.5h-264v293h-65v134h65v285h264q59 0 107.5 -17t85 -53.5t55 -84t18.5 -150.5v-51v-53q0 -83 -12.5 -133.5t-61.5 -99.5zM436 516q-13 20 -32.5 30t-51.5 10h-77v-129h90v-134h-90v-137h77q31 0 51 10.5t32.5 28.5t16 45.5t3.5 115.5
q0 87 -4 115.5t-15 44.5z" />
    <glyph glyph-name="Eth" horiz-adv-x="550" 
d="M442 60q-27 -28 -68 -47t-99 -19q-59 0 -99 18t-70.5 50.5t-42.5 75t-12 121.5q0 77 12 120.5t33.5 66.5t41.5 37t39 22.5t37 13t40 4.5l-20 40h-113v114h57l-22 46h176l22 -46h97v-114h-41l26 -57q37 -81 50 -127.5t13 -119.5q0 -77 -12 -120.5t-45 -78.5zM314 362
q-14 14 -39 14t-38 -13t-17.5 -39t-4.5 -65q0 -45 3.5 -67t17.5 -36t39 -14t38 13t17.5 39t4.5 65q0 45 -3.5 67t-17.5 36z" />
    <glyph glyph-name="eth" horiz-adv-x="605" 
d="M390 290v-290h-175v290l-215 422h191l112 -256l111 256h191zM343 782h-99l49 180h168z" />
    <glyph glyph-name="Yacute" horiz-adv-x="514" 
d="M299 -64q-16 -45 -40.5 -70t-54.5 -35.5t-68 -10.5h-62v148h35q23 0 35 7.5t20 32.5l15 45l-179 485h172l91 -279l87 279h172zM298 610h-99l49 180h168z" />
    <glyph glyph-name="yacute" horiz-adv-x="627" 
d="M354 131h-107v-131h-175v712h175v-123h107q114 0 178.5 -67.5t64.5 -161.5q0 -93 -65 -161t-178 -68zM346 432h-99v-144h99q35 0 55.5 21.5t20.5 50.5t-20.5 50.5t-55.5 21.5z" />
    <glyph glyph-name="Thorn" horiz-adv-x="571" 
d="M476 43q-49 -49 -130 -49q-75 0 -120 45v-213h-164v886h164v-213q45 45 120 45q81 0 126 -45t49.5 -104.5t4.5 -125.5v-30q0 -72 -9 -118t-41 -78zM294 396q-43 0 -55.5 -30t-12.5 -97t12.5 -97t55.5 -30t55.5 30t12.5 97t-12.5 97t-55.5 30z" />
    <glyph glyph-name="thorn" 
d="M49 218v154h458v-154h-458z" />
    <glyph glyph-name="minus" 
d="M413 57l-135 135l-134 -135l-105 104l136 134l-136 135l104 104l134 -135l135 135l105 -104l-136 -135l136 -134z" />
    <glyph glyph-name="multiply" horiz-adv-x="311" 
d="M130 285v297l-95 -82v130l95 82h116v-427h-116z" />
    <glyph glyph-name="onesuperior" horiz-adv-x="367" 
d="M40 285v104l151 154q22 22 22 40q0 14 -7.5 21.5t-21.5 7.5q-11 0 -19.5 -6t-8.5 -24h-116q0 63 41.5 98.5t102.5 35.5q63 0 103 -35.5t40 -97.5q0 -33 -13.5 -56.5t-45.5 -54.5l-87 -83h146v-104h-287z" />
    <glyph glyph-name="twosuperior" horiz-adv-x="375" 
d="M187 281q-61 0 -104 34t-43 106h115q0 -36 32 -36t32 35q0 14 -9 24t-24 10h-16v99h16q15 0 22.5 9.5t7.5 19.5q0 14 -8 22t-20 8q-28 0 -28 -31h-116q0 61 41 98t103 37q61 0 102 -37t41 -93q0 -33 -10.5 -49t-29.5 -31q19 -18 31.5 -38t12.5 -52q0 -66 -43 -100.5
t-105 -34.5z" />
    <glyph glyph-name="threesuperior" horiz-adv-x="904" 
d="M577 0v104l151 154q22 22 22 40q0 14 -7.5 21.5t-21.5 7.5q-11 0 -19.5 -6t-8.5 -24h-116q0 63 41.5 98.5t102.5 35.5q63 0 103 -35.5t40 -97.5q0 -33 -13.5 -56.5t-45.5 -54.5l-87 -83h146v-104h-287zM320 0h-126l339 712h126zM130 285v297l-95 -82v130l95 82h116v-427
h-116z" />
    <glyph glyph-name="onehalf" horiz-adv-x="871" 
d="M805 53v-53h-109v53h-179v110l138 264h127l-139 -264h53v37h109v-37h26v-110h-26zM320 0h-126l339 712h126zM130 285v297l-95 -82v130l95 82h116v-427h-116z" />
    <glyph glyph-name="onequarter" horiz-adv-x="891" 
d="M825 53v-53h-109v53h-179v110l138 264h127l-139 -264h53v37h109v-37h26v-110h-26zM340 0h-126l339 712h126zM187 281q-61 0 -104 34t-43 106h115q0 -36 32 -36t32 35q0 14 -9 24t-24 10h-16v99h16q15 0 22.5 9.5t7.5 19.5q0 14 -8 22t-20 8q-28 0 -28 -31h-116
q0 61 41 98t103 37q61 0 102 -37t41 -93q0 -33 -10.5 -49t-29.5 -31q19 -18 31.5 -38t12.5 -52q0 -66 -43 -100.5t-105 -34.5z" />
  </font>
</defs>
</svg>
