<?xml version="1.0" standalone="no"?>
<!DOCTYPE svg PUBLIC "-//W3C//DTD SVG 1.1//EN" "http://www.w3.org/Graphics/SVG/1.1/DTD/svg11.dtd" >
<svg xmlns="http://www.w3.org/2000/svg" xmlns:xlink="http://www.w3.org/1999/xlink" version="1.1">
<metadata>
Created by FontForge 20161003 at Thu Sep 14 06:30:38 2017
 By www-data
</metadata>
<defs>
<font id="DINBLACK_1" horiz-adv-x="1139" >
  <font-face 
    font-family="DINBLACK_1"
    font-weight="900"
    font-stretch="normal"
    units-per-em="2048"
    panose-1="2 2 5 0 0 0 0 0 0 0"
    ascent="1638"
    descent="-410"
    x-height="1102"
    cap-height="1458"
    bbox="-250 -410 2425 2112"
    underline-thickness="108"
    underline-position="-294"
    unicode-range="U+0020-2219"
  />
<missing-glyph horiz-adv-x="1536" 
d="M256 0v1280h1024v-1280h-1024zM1247 33v1214h-958v-1214h958z" />
    <glyph glyph-name=".notdef" horiz-adv-x="1536" 
d="M256 0v1280h1024v-1280h-1024zM1247 33v1214h-958v-1214h958z" />
    <glyph glyph-name=".null" horiz-adv-x="0" 
 />
    <glyph glyph-name="nonmarkingreturn" horiz-adv-x="0" 
 />
    <glyph glyph-name="space" unicode=" " horiz-adv-x="455" 
 />
    <glyph glyph-name="exclam" unicode="!" horiz-adv-x="750" 
d="M627 1458l-90 -973h-242l-90 973h422zM588 0h-344v330h344v-330z" />
    <glyph glyph-name="quotedbl" unicode="&#x22;" horiz-adv-x="999" 
d="M883 979h-301v479h301v-479zM418 979h-301v479h301v-479z" />
    <glyph glyph-name="numbersign" unicode="#" horiz-adv-x="1460" 
d="M1364 844h-170l-27 -180h119v-318h-170l-55 -346h-356l55 346h-185l-55 -346h-356l55 346h-119v318h170l27 180h-119v317h170l49 314h357l-49 -314h184l49 314h356l-49 -314h119v-317zM838 844h-185l-26 -180h184z" />
    <glyph glyph-name="dollar" unicode="$" horiz-adv-x="1296" 
d="M1208 446q0 -185 -121 -300.5t-317 -147.5v-231h-258v221q-161 5 -282.5 48.5t-219.5 143.5l230 230q98 -99 313 -103v271l-80 10q-191 24 -293 129q-100 103 -100 293q0 116 52 215t150 161t230 78v187h258v-183q259 -15 416 -172l-225 -225q-74 74 -232 84v-256l84 -12
q192 -28 287 -121q57 -55 82.5 -133.5t25.5 -186.5zM553 911v242q-64 -11 -95.5 -48t-31.5 -83q0 -39 29 -68q34 -34 98 -43zM856 438q0 58 -29 86q-28 31 -98 39v-250q127 25 127 125z" />
    <glyph glyph-name="percent" unicode="%" horiz-adv-x="1755" 
d="M1663 272q0 -93 -42 -157t-113 -95.5t-154 -31.5t-154 31t-113.5 95.5t-42.5 157.5v195q0 94 42.5 158.5t113.5 95.5t154 31t154 -31.5t113 -95.5t42 -158v-195zM1354 1458l-695 -1458h-258l695 1458h258zM711 991q0 -93 -42.5 -157.5t-113.5 -95.5t-154 -31
q-82 0 -153 31t-113.5 95.5t-42.5 157.5v195q0 93 42.5 157.5t113.5 95.5t153 31q83 0 154 -31t113.5 -95.5t42.5 -157.5v-195zM1425 281v178q0 80 -71 80q-72 0 -72 -80v-178q0 -80 72 -80q71 0 71 80zM473 999v179q0 79 -72 79q-71 0 -71 -79v-179q0 -79 71 -79
q72 0 72 79z" />
    <glyph glyph-name="ampersand" unicode="&#x26;" horiz-adv-x="1454" 
d="M1454 0h-422l-92 106q-83 -60 -150 -89t-196 -29q-250 0 -372 118t-122 336q0 114 67.5 207t164.5 158q-39 44 -66.5 82t-49 94.5t-21.5 124.5q0 82 28 148.5t82.5 114.5t134.5 73.5t183 25.5q97 0 172 -26t128 -75t80 -116t27 -149q0 -80 -35.5 -137.5t-107.5 -112.5
q-7 -6 -24 -18.5t-35 -26.5t-44 -31l172 -198q28 32 45.5 92t22.5 119h315q-22 -295 -170 -457zM715 1102q0 38 -23 62t-69 24q-93 0 -93 -88q0 -19 14 -42t29.5 -40.5t34.5 -36.5q4 2 23 15.5t26 19.5q58 40 58 86zM737 344l-227 260q-48 -32 -67 -69.5t-19 -90.5
q0 -66 51 -109.5t119 -43.5q52 0 82 13t61 40z" />
    <glyph glyph-name="quotesingle" unicode="'" horiz-adv-x="537" 
d="M420 979h-303v479h303v-479z" />
    <glyph glyph-name="parenleft" unicode="(" horiz-adv-x="733" 
d="M633 33l-225 -226q-90 90 -128.5 132.5t-72.5 99.5q-60 100 -60 295v790q0 195 60 295q36 61 73.5 101.5t127.5 130.5l225 -226q-54 -54 -71 -72t-46 -65q-33 -58 -33 -176v-766q0 -118 33 -176q18 -29 35 -50.5t38.5 -43z" />
    <glyph glyph-name="parenright" unicode=")" horiz-adv-x="733" 
d="M586 334q0 -96 -11.5 -165.5t-48.5 -129.5q-30 -53 -73 -100.5t-127 -131.5l-226 226q23 22 44 43t36 39.5t37 54.5q33 55 33 176v766q0 121 -33 176q-25 43 -47.5 67.5t-69.5 69.5l226 226q84 -84 125.5 -129.5t74.5 -102.5q37 -60 48.5 -129.5t11.5 -165.5v-790z" />
    <glyph glyph-name="asterisk" unicode="*" horiz-adv-x="1036" 
d="M940 928l-115 -199l-202 131l10 -242h-230l11 242l-203 -131l-115 199l215 110l-215 111l115 199l203 -131l-11 241h230l-10 -241l202 131l115 -199l-215 -111z" />
    <glyph glyph-name="plus" unicode="+" 
d="M1038 422h-311v-311h-315v311h-312v315h312v312h315v-312h311v-315z" />
    <glyph glyph-name="comma" unicode="," horiz-adv-x="590" 
d="M473 -102l-356 -263v721h356v-458z" />
    <glyph glyph-name="hyphen" unicode="-" horiz-adv-x="872" 
d="M772 446h-672v316h672v-316z" />
    <glyph glyph-name="period" unicode="." horiz-adv-x="602" 
d="M485 0h-368v369h368v-369z" />
    <glyph glyph-name="slash" unicode="/" horiz-adv-x="883" 
d="M895 1610l-584 -1762h-311l584 1762h311z" />
    <glyph glyph-name="zero" unicode="0" 
d="M1038 442q0 -109 -38 -195.5t-103.5 -143t-151 -86t-176.5 -29.5q-123 0 -231 52t-173 154.5t-65 247.5v574q0 111 38.5 195.5t105 143t150 87t175.5 28.5q94 0 177.5 -28.5t150 -86.5t104 -143t37.5 -196v-574zM702 440v576q0 74 -38 112.5t-95 38.5t-95 -39.5
t-38 -111.5v-576q0 -71 38 -110t95 -39t95 38t38 111z" />
    <glyph glyph-name="one" unicode="1" 
d="M831 0h-335v1100l-312 -271v359l312 270h335v-1458z" />
    <glyph glyph-name="two" unicode="2" 
d="M1047 0h-938v303l528 574q41 44 57.5 77t16.5 78q0 62 -34 98.5t-97 36.5q-56 0 -96 -32t-40 -109h-335q0 137 63 238t170 153.5t238 52.5q136 0 241.5 -53t165.5 -153.5t60 -233.5q0 -107 -41 -180.5t-140 -177.5l-348 -369h529v-303z" />
    <glyph glyph-name="three" unicode="3" 
d="M1057 436q0 -217 -139.5 -332.5t-346.5 -115.5q-127 0 -237 47.5t-179 151t-69 257.5h336q0 -74 42 -113.5t107 -39.5q68 0 109 39t41 116q0 68 -44 111t-112 43h-47v291h47q47 0 78.5 19.5t46.5 50.5t15 67q0 66 -39 102.5t-95 36.5t-94.5 -37t-38.5 -100h-336
q0 102 35.5 183.5t100.5 139t149.5 87.5t183.5 30q134 0 240.5 -55t167.5 -154.5t61 -222.5q0 -188 -151 -284q75 -52 121.5 -125.5t46.5 -192.5z" />
    <glyph glyph-name="four" unicode="4" 
d="M1085 193h-108v-193h-320v193h-604v319l484 946h368l-483 -946h235v193h320v-193h108v-319z" />
    <glyph glyph-name="five" unicode="5" 
d="M1049 498q0 -92 -11.5 -157t-41 -119.5t-83.5 -108.5q-51 -53 -137.5 -89t-200.5 -36q-112 0 -202 36.5t-144 90.5q-68 68 -92.5 143.5t-34.5 185.5h336q18 -153 137 -153q58 0 95 37q43 43 43 170q0 113 -35 160t-103 47q-64 0 -91 -28t-46 -77h-309v858h889v-303h-584
v-225q28 21 83 39t114 18q90 0 163.5 -28t118.5 -74q82 -81 109 -172.5t27 -214.5z" />
    <glyph glyph-name="six" unicode="6" 
d="M1049 457q0 -147 -65.5 -254.5t-177 -161t-243.5 -53.5t-243.5 53.5t-176.5 161t-65 254.5q0 48 11.5 103.5t33 112t50 115.5t44.5 93l281 577h368l-288 -571q28 10 81 10q71 0 139.5 -29t125.5 -85.5t91 -138.5t34 -187zM713 457q0 78 -42 122t-108 44q-64 0 -106.5 -44
t-42.5 -122t42 -122t107 -44t107.5 44t42.5 122z" />
    <glyph glyph-name="seven" unicode="7" 
d="M1069 1155l-455 -1155h-368l454 1155h-311v-229h-319v532h999v-303z" />
    <glyph glyph-name="eight" unicode="8" 
d="M1059 436q0 -147 -65 -247.5t-176.5 -150.5t-248.5 -50t-248 50t-176 150.5t-65 247.5q0 118 48 189.5t116 124.5q-65 57 -107.5 121.5t-42.5 166.5q0 101 38.5 183t105 137.5t152.5 83.5t179 28q95 0 181 -28.5t151.5 -83.5t104 -137t38.5 -183q0 -104 -43.5 -170
t-105.5 -118q68 -53 116 -124.5t48 -189.5zM709 1028q0 60 -40.5 99.5t-99.5 39.5q-58 0 -98.5 -40.5t-40.5 -98.5t40.5 -98.5t98.5 -40.5q59 0 99.5 39.5t40.5 99.5zM723 444q0 40 -21 76t-57 57t-76 21q-63 0 -108 -45t-45 -109q0 -63 45 -108t108 -45q64 0 109 45t45 108
z" />
    <glyph glyph-name="nine" unicode="9" 
d="M1061 1001q0 -98 -34.5 -189.5t-104.5 -233.5l-281 -578h-369l289 571q-29 -10 -82 -10q-66 0 -136 29t-127 85.5t-91.5 139t-34.5 186.5q0 147 65 254.5t176.5 161t243.5 53.5t244 -53.5t177 -161t65 -254.5zM725 1001q0 78 -42 122t-108 44q-64 0 -106.5 -44
t-42.5 -122q0 -77 42 -121t107 -44t107.5 44t42.5 121z" />
    <glyph glyph-name="colon" unicode=":" horiz-adv-x="649" 
d="M532 518h-368v369h368v-369zM532 0h-368v369h368v-369z" />
    <glyph glyph-name="semicolon" unicode=";" horiz-adv-x="649" 
d="M532 518h-368v369h368v-369zM526 -102l-356 -263v721h356v-458z" />
    <glyph glyph-name="less" unicode="&#x3c;" horiz-adv-x="2103" 
d="M2005 446h-1339l622 -614h-420l-772 772l772 772h420l-622 -614h1339v-316z" />
    <glyph glyph-name="equal" unicode="=" 
d="M1038 696h-938v316h938v-316zM1038 197h-938v315h938v-315z" />
    <glyph glyph-name="greater" unicode="&#x3e;" horiz-adv-x="2103" 
d="M2007 604l-772 -772h-420l623 614h-1342v316h1342l-623 614h420z" />
    <glyph glyph-name="question" unicode="?" horiz-adv-x="1102" 
d="M1040 1040q0 -127 -104 -262l-141 -178q-17 -20 -27 -47t-10 -49v-19h-336v47q0 69 19 122t65 106l143 168q56 63 56 114q0 57 -31 91t-92 34q-62 0 -92.5 -35t-30.5 -94h-336q0 103 36.5 184.5t98 135.5t145 83t179.5 29q193 0 325.5 -113t132.5 -317zM762 0h-344v330
h344v-330z" />
    <glyph glyph-name="at" unicode="@" horiz-adv-x="1606" 
d="M1505 -8l-309 8v82q-47 -47 -100.5 -70.5t-130.5 -23.5q-154 0 -246 90q-64 61 -81 143t-17 242q0 159 17 241t81 144q93 90 244 90q134 0 223 -84v53q0 130 -66 195q-65 65 -194 65h-246q-129 0 -195 -65q-40 -41 -52.5 -86.5t-12.5 -108.5v-536q0 -63 16 -98.5
t58 -77.5l-232 -232q-64 66 -96 115.5t-49 116t-17 155.5v570q0 96 11.5 170t39.5 135.5t80 113.5q39 39 85 64.5t98 40.5t107.5 20.5t135.5 5.5h291q147 0 250 -28.5t176 -102.5q74 -72 102.5 -170t28.5 -249v-928zM1186 463q0 108 -29.5 152t-93.5 44t-93.5 -44
t-29.5 -152q0 -107 29.5 -152t93.5 -45t93.5 45t29.5 152z" />
    <glyph glyph-name="A" unicode="A" horiz-adv-x="1337" 
d="M1337 0h-374l-68 217h-449l-71 -217h-375l530 1458h277zM801 516l-123 389l-131 -389h254z" />
    <glyph glyph-name="B" unicode="B" horiz-adv-x="1337" 
d="M1237 430q0 -103 -34 -183t-95 -135t-146 -83.5t-180 -28.5h-635v1458h605q148 0 253 -52.5t158.5 -148t53.5 -221.5q0 -106 -52 -178.5t-108 -109.5q72 -43 126 -113.5t54 -204.5zM858 1018q0 49 -30.5 84t-98.5 35h-223v-238h223q66 0 97.5 35t31.5 84zM879 451
q0 53 -31 90t-100 37h-242v-256h242q68 0 99.5 38t31.5 91z" />
    <glyph glyph-name="C" unicode="C" horiz-adv-x="1247" 
d="M1206 463q-19 -116 -68.5 -207.5t-123 -150.5t-165.5 -88t-196 -29q-243 0 -405 164q-96 96 -122 218t-26 310v49v49q0 188 26 310.5t122 218.5q82 82 180 122.5t225 40.5q109 0 200 -29.5t163 -88t121.5 -149t68.5 -208.5h-364q-19 71 -61.5 113.5t-125.5 42.5
q-46 0 -82.5 -17t-58.5 -44q-19 -24 -30.5 -57.5t-18 -102t-6.5 -201.5q0 -177 13 -248.5t42 -111.5q48 -62 141 -62q81 0 124.5 42.5t62.5 113.5h364z" />
    <glyph glyph-name="D" unicode="D" horiz-adv-x="1333" 
d="M1233 729v-119q0 -106 -9.5 -180.5t-42.5 -147t-100 -139.5q-143 -143 -393 -143h-541v1458h541q250 0 393 -143q67 -67 100 -139.5t42.5 -147t9.5 -180.5v-119zM874 729q0 180 -7.5 237.5t-30.5 90.5q-55 82 -172 82h-158v-820h158q117 0 172 82q17 26 23.5 51.5
t10.5 87.5t4 189z" />
    <glyph glyph-name="E" unicode="E" horiz-adv-x="1245" 
d="M1139 0h-992v1458h992v-319h-633v-244h541v-320h-541v-256h633v-319z" />
    <glyph glyph-name="F" unicode="F" horiz-adv-x="1221" 
d="M1139 1139h-633v-256h541v-320h-541v-563h-359v1458h992v-319z" />
    <glyph glyph-name="G" unicode="G" horiz-adv-x="1325" 
d="M1225 637q0 -180 -32.5 -291t-115.5 -194q-59 -60 -126.5 -97t-140.5 -52t-157 -15q-243 0 -405 164q-96 96 -122 218t-26 310v49v49q0 188 26 310.5t122 218.5q83 83 179 123t226 40q260 0 400.5 -139t169.5 -344h-361q-22 86 -70 125t-139 39q-92 0 -141 -64
q-18 -23 -29.5 -56.5t-17.5 -103t-6 -198.5t6 -199t17.5 -104t29.5 -57q48 -62 141 -62q105 0 160 58q55 55 55 155v21h-215v299h572v-203z" />
    <glyph glyph-name="H" unicode="H" horiz-adv-x="1393" 
d="M1245 0h-358v578h-381v-578h-359v1458h359v-561h381v561h358v-1458z" />
    <glyph glyph-name="I" unicode="I" horiz-adv-x="653" 
d="M506 0h-359v1458h359v-1458z" />
    <glyph glyph-name="J" unicode="J" horiz-adv-x="1057" 
d="M930 500q0 -165 -77.5 -281t-203 -173.5t-268.5 -57.5q-83 0 -152.5 15.5t-126.5 49t-118 94.5l235 234q43 -41 74.5 -57.5t87.5 -16.5q86 0 138 50.5t52 150.5v950h359v-958z" />
    <glyph glyph-name="K" unicode="K" horiz-adv-x="1378" 
d="M1378 0h-417l-336 598l-123 -141v-457h-355v1458h355v-516l422 516h438l-498 -590z" />
    <glyph glyph-name="L" unicode="L" horiz-adv-x="1180" 
d="M1118 0h-971v1458h359v-1139h612v-319z" />
    <glyph glyph-name="M" unicode="M" horiz-adv-x="1655" 
d="M1507 0h-358v698l-207 -360h-229l-207 360v-698h-359v1458h353l327 -643l328 643h352v-1458z" />
    <glyph glyph-name="N" unicode="N" horiz-adv-x="1434" 
d="M1286 0h-313l-467 733v-733h-359v1458h314l467 -733v733h358v-1458z" />
    <glyph glyph-name="O" unicode="O" horiz-adv-x="1311" 
d="M1210 729v-49q0 -122 -8.5 -210t-40.5 -170t-98 -148q-81 -81 -178.5 -122.5t-229.5 -41.5q-89 0 -160.5 18.5t-132 54.5t-114.5 91q-96 96 -122 218t-26 310v49v49q0 188 26 310.5t122 218.5q83 83 179.5 123t227.5 40q132 0 229 -40.5t179 -122.5q66 -66 98 -148.5
t40.5 -170.5t8.5 -210v-49zM852 729q0 186 -12.5 254t-40.5 104q-20 28 -58.5 46t-85.5 18q-46 0 -83 -17.5t-60 -46.5q-18 -23 -29.5 -56.5t-17.5 -103t-6 -198.5q0 -128 6 -197.5t17.5 -102.5t29.5 -56q51 -66 143 -66q93 0 144 66q28 39 40.5 104.5t12.5 251.5z" />
    <glyph glyph-name="P" unicode="P" horiz-adv-x="1284" 
d="M1223 989q0 -123 -58.5 -230t-170.5 -173t-269 -66h-219v-520h-359v1458h578q157 0 269 -65.5t170.5 -172.5t58.5 -231zM864 989q0 39 -18.5 73t-54 54.5t-82.5 20.5h-203v-295h203q47 0 82.5 20.5t54 54t18.5 72.5z" />
    <glyph glyph-name="Q" unicode="Q" horiz-adv-x="1311" 
d="M1233 125l-182 -182l-113 112q-116 -67 -283 -67q-89 0 -160.5 18.5t-132 54.5t-114.5 91q-96 96 -122 218t-26 310v49v49q0 188 26 310.5t122 218.5q83 83 179.5 123t227.5 40q132 0 229 -40.5t179 -122.5q66 -66 98 -148.5t40.5 -170.5t8.5 -210v-49q0 -120 -4 -197
t-22 -155.5t-58 -145.5zM852 729q0 186 -12.5 254t-40.5 104q-20 28 -58.5 46t-85.5 18q-46 0 -83 -17.5t-60 -46.5q-18 -23 -29.5 -56.5t-17.5 -103t-6 -198.5q0 -128 6 -197.5t17.5 -102.5t29.5 -56q51 -66 143 -66q19 0 29 2l-92 92l182 183l70 -70q8 98 8 215z" />
    <glyph glyph-name="R" unicode="R" horiz-adv-x="1335" 
d="M1300 0h-415l-258 543h-121v-543h-359v1458h578q157 0 269 -65.5t170.5 -172.5t58.5 -231q0 -137 -69.5 -234.5t-168.5 -146.5zM864 989q0 39 -18.5 73t-54 54.5t-82.5 20.5h-203v-295h203q47 0 82.5 20.5t54 54t18.5 72.5z" />
    <glyph glyph-name="S" unicode="S" horiz-adv-x="1214" 
d="M1126 446q0 -143 -75.5 -247t-204 -157.5t-283.5 -53.5q-181 0 -315 43t-238 149l230 230q54 -54 142 -78.5t183 -24.5q209 0 209 131q0 56 -29 86t-96 39l-176 25q-194 27 -293 129q-100 103 -100 293q0 133 64.5 237.5t185 163.5t282.5 59q161 0 281.5 -41.5
t210.5 -132.5l-225 -225q-56 56 -121 71t-156 15q-86 0 -131 -41t-45 -94q0 -39 29 -68q34 -34 100 -43l176 -24q192 -28 287 -121q57 -55 82.5 -133.5t25.5 -186.5z" />
    <glyph glyph-name="T" unicode="T" horiz-adv-x="1198" 
d="M1137 1139h-359v-1139h-358v1139h-359v319h1076v-319z" />
    <glyph glyph-name="U" unicode="U" horiz-adv-x="1352" 
d="M1229 512q0 -115 -43 -213t-120 -168t-178 -106.5t-214 -36.5q-149 0 -276.5 65t-201 184.5t-73.5 274.5v946h358v-938q0 -100 51.5 -156.5t141.5 -56.5q58 0 103 25t69 73t24 115v938h359v-946z" />
    <glyph glyph-name="V" unicode="V" horiz-adv-x="1231" 
d="M1231 1458l-483 -1458h-267l-481 1458h371l245 -815l242 815h373z" />
    <glyph glyph-name="W" unicode="W" horiz-adv-x="1855" 
d="M1855 1458l-399 -1458h-293l-235 719l-236 -719h-291l-401 1458h375l190 -770l236 770h254l235 -770l191 770h374z" />
    <glyph glyph-name="X" unicode="X" horiz-adv-x="1298" 
d="M1298 0h-409l-240 449l-239 -449h-410l455 748l-426 710h407l213 -411l213 411h408l-426 -710z" />
    <glyph glyph-name="Y" unicode="Y" horiz-adv-x="1239" 
d="M1239 1458l-440 -864v-594h-359v594l-440 864h391l230 -524l227 524h391z" />
    <glyph glyph-name="Z" unicode="Z" horiz-adv-x="1112" 
d="M1051 0h-990v279l560 860h-535v319h965v-278l-562 -861h562v-319z" />
    <glyph glyph-name="bracketleft" unicode="[" horiz-adv-x="852" 
d="M770 -152h-623v1762h623v-303h-287v-1155h287v-304z" />
    <glyph glyph-name="backslash" unicode="\" horiz-adv-x="883" 
d="M883 -152h-312l-571 1725h311z" />
    <glyph glyph-name="bracketright" unicode="]" horiz-adv-x="852" 
d="M705 -152h-623v304h287v1155h-287v303h623v-1762z" />
    <glyph glyph-name="asciicircum" unicode="^" horiz-adv-x="1311" 
d="M1194 768h-354l-185 338l-184 -338h-354l383 707h311z" />
    <glyph glyph-name="underscore" unicode="_" horiz-adv-x="1311" 
d="M1311 -381h-1311v221h1311v-221z" />
    <glyph glyph-name="grave" unicode="`" horiz-adv-x="1024" 
d="M631 1249h-203l-242 369h344z" />
    <glyph glyph-name="a" unicode="a" horiz-adv-x="1098" 
d="M989 0h-327v90q-55 -53 -108 -76.5t-138 -23.5q-166 0 -264 98q-97 97 -97 258q0 88 40 160t124.5 116t210.5 44h223v28q0 76 -38.5 106.5t-127.5 30.5q-62 0 -98.5 -16t-77.5 -57l-209 209q86 85 173.5 116t228.5 31q238 0 361.5 -99.5t123.5 -299.5v-715zM653 414v28
h-170q-48 0 -77 -24t-29 -64q0 -39 29 -65.5t81 -26.5q49 0 78 7.5t56 33.5q32 31 32 111z" />
    <glyph glyph-name="b" unicode="b" horiz-adv-x="1165" 
d="M1077 551v-51q0 -147 -18 -246.5t-84 -165.5q-102 -100 -268 -100q-82 0 -140.5 24t-113.5 78v-90h-326v1458h336v-436q47 47 106.5 69.5t139.5 22.5q164 0 266 -100q66 -66 84 -165.5t18 -246.5v-51zM741 551q0 87 -9.5 143.5t-39 86.5t-90.5 30q-86 0 -112.5 -62
t-26.5 -198q0 -87 9.5 -143.5t39 -86.5t90.5 -30t90.5 30t39 86.5t9.5 143.5z" />
    <glyph glyph-name="c" unicode="c" horiz-adv-x="973" 
d="M936 129q-44 -44 -100.5 -76.5t-123.5 -48.5t-139 -16q-117 0 -227.5 45t-189 172t-78.5 346t78.5 346t189 172t227.5 45q112 0 203 -36t160 -105l-227 -228q-66 66 -136 66q-61 0 -104 -43q-55 -58 -55 -217t55 -217q43 -43 104 -43q71 0 136 65z" />
    <glyph glyph-name="d" unicode="d" horiz-adv-x="1165" 
d="M1038 0h-325v90q-55 -53 -113 -77.5t-141 -24.5q-167 0 -269 100q-64 64 -83 164.5t-19 247.5v51v51q0 147 19 247.5t83 164.5q31 31 74.5 54t91 34.5t101.5 11.5q153 0 245 -92v436h336v-1458zM702 551q0 87 -9.5 143.5t-39 86.5t-90.5 30q-86 0 -112.5 -62t-26.5 -198
q0 -87 9.5 -143.5t39 -86.5t90.5 -30t90.5 30t39 86.5t9.5 143.5z" />
    <glyph glyph-name="e" unicode="e" horiz-adv-x="1145" 
d="M1067 442h-659q0 -72 52.5 -122t141.5 -50q84 0 131.5 22t95.5 70l201 -200q-91 -91 -185 -132.5t-243 -41.5q-524 0 -524 563q0 265 136.5 414t356.5 149q155 0 267.5 -69t170.5 -187t58 -266v-150zM735 666q0 49 -18 86q-16 37 -53.5 61.5t-92.5 24.5t-92.5 -24.5
t-52.5 -61.5q-18 -37 -18 -86h327z" />
    <glyph glyph-name="f" unicode="f" horiz-adv-x="733" 
d="M682 801h-184v-801h-336v801h-101v258h101v96q0 80 36.5 155.5t113.5 123t192 47.5h178v-283h-117q-67 0 -67 -68v-71h184v-258z" />
    <glyph glyph-name="g" unicode="g" horiz-adv-x="1149" 
d="M1022 80q0 -96 -35 -179t-101 -143.5t-159.5 -93.5t-202.5 -33q-93 0 -164 13t-133.5 44.5t-115.5 86.5l208 209q37 -37 84.5 -53.5t104.5 -16.5q95 0 136.5 50.5t41.5 117.5v80q-91 -92 -237 -92q-161 0 -259 98q-48 48 -70 106.5t-27 125.5t-5 192q0 96 2.5 147
t12.5 104.5t30 94.5t57 78q46 46 114.5 72t146.5 26q81 0 138 -25t107 -77v90h326v-1022zM686 592q0 68 -8 114t-37 75.5t-86 29.5t-86 -29.5t-37 -75t-8 -114.5q0 -68 8 -114t37 -75.5t86 -29.5t86 29.5t37 75t8 114.5z" />
    <glyph glyph-name="h" unicode="h" horiz-adv-x="1174" 
d="M1057 0h-336v668q0 79 -41.5 111t-87.5 32t-87.5 -33t-41.5 -110v-668h-336v1458h336v-446q50 50 113.5 76t128.5 26q115 0 194 -51.5t118.5 -143.5t39.5 -204v-715z" />
    <glyph glyph-name="i" unicode="i" horiz-adv-x="590" 
d="M463 1214h-336v256h336v-256zM463 0h-336v1059h336v-1059z" />
    <glyph glyph-name="j" unicode="j" horiz-adv-x="590" 
d="M463 1214h-336v256h336v-256zM463 -43q0 -130 -86.5 -228t-255.5 -98h-178v283h116q68 0 68 68v1077h336v-1102z" />
    <glyph glyph-name="k" unicode="k" horiz-adv-x="1174" 
d="M1174 0h-416l-230 403l-65 -71v-332h-336v1458h336v-741l297 385h403l-405 -457z" />
    <glyph glyph-name="l" unicode="l" horiz-adv-x="698" 
d="M637 0h-178q-115 0 -192 47.5t-113.5 123t-36.5 155.5v1132h336v-1108q0 -67 67 -67h117v-283z" />
    <glyph glyph-name="m" unicode="m" horiz-adv-x="1792" 
d="M1675 0h-336v659q0 85 -43.5 118.5t-91.5 33.5t-91.5 -34t-43.5 -118v-659h-336v659q0 85 -43.5 118.5t-91.5 33.5t-91.5 -34t-43.5 -118v-659h-336v1102h328v-90q48 48 118.5 75t137.5 27q165 0 268 -117q71 62 143 89.5t168 27.5q79 0 150.5 -25t113.5 -69
q67 -66 94 -142.5t27 -172.5v-705z" />
    <glyph glyph-name="n" unicode="n" horiz-adv-x="1186" 
d="M1069 0h-336v659q0 85 -43.5 118.5t-91.5 33.5t-91.5 -34t-43.5 -118v-659h-336v1102h328v-90q48 48 118.5 75t137.5 27q153 0 247 -94q65 -63 88 -139t23 -176v-705z" />
    <glyph glyph-name="o" unicode="o" horiz-adv-x="1126" 
d="M1038 551q0 -163 -26 -255.5t-94 -166.5q-133 -141 -355 -141q-223 0 -354 141q-45 48 -72 105t-38 130.5t-11 186.5q0 112 11 185.5t38 130t72 106.5q58 61 145 101t209 40t209.5 -39.5t145.5 -101.5q68 -74 94 -167t26 -255zM702 551q0 96 -9.5 148.5t-39.5 80.5
q-30 31 -90 31q-59 0 -90 -31q-30 -30 -39.5 -85.5t-9.5 -143.5t9.5 -142.5t39.5 -86.5q31 -31 90 -31q60 0 90 30.5t39.5 82t9.5 147.5z" />
    <glyph glyph-name="p" unicode="p" horiz-adv-x="1165" 
d="M1077 551v-51q0 -147 -18 -246.5t-84 -165.5q-102 -100 -266 -100q-155 0 -246 92v-436h-336v1458h326v-90q102 102 254 102q166 0 268 -100q66 -66 84 -165.5t18 -246.5v-51zM741 551q0 87 -9.5 143.5t-39 86.5t-90.5 30q-86 0 -112.5 -62t-26.5 -198q0 -87 9.5 -143.5
t39 -86.5t90.5 -30t90.5 30t39 86.5t9.5 143.5z" />
    <glyph glyph-name="q" unicode="q" horiz-adv-x="1165" 
d="M1038 -356h-336v436q-91 -92 -245 -92q-80 0 -149.5 27t-117.5 73q-64 64 -83 164.5t-19 247.5v51v51q0 147 19 247.5t83 164.5q102 100 269 100q83 0 142.5 -25t111.5 -77v90h325v-1458zM702 551q0 87 -9.5 143.5t-39 86.5t-90.5 30q-86 0 -112.5 -62t-26.5 -198
q0 -87 9.5 -143.5t39 -86.5t90.5 -30t90.5 30t39 86.5t9.5 143.5z" />
    <glyph glyph-name="r" unicode="r" horiz-adv-x="973" 
d="M973 1012l-254 -258q-28 28 -54 42.5t-67 14.5q-47 0 -91 -34.5t-44 -117.5v-659h-336v1102h328v-90q42 42 110.5 72t149.5 30q82 0 142 -23t116 -79z" />
    <glyph glyph-name="s" unicode="s" horiz-adv-x="1032" 
d="M977 360q0 -125 -64 -208.5t-172 -123.5t-241 -40q-102 0 -177.5 9.5t-153 43.5t-149.5 106l218 218q92 -93 268 -93q49 0 96 17t47 55q0 63 -80 70l-170 16q-96 9 -168.5 44.5t-111.5 103t-39 172.5q0 87 36.5 157t97.5 115t139.5 68.5t164.5 23.5q147 0 252 -29
t182 -106l-207 -207q-66 66 -233 66q-55 0 -82 -20t-27 -44q0 -53 72 -61l170 -17q113 -10 187 -55.5t109.5 -117.5t35.5 -163z" />
    <glyph glyph-name="t" unicode="t" horiz-adv-x="743" 
d="M662 0h-168q-115 0 -192 47.5t-113.5 123t-36.5 155.5v475h-101v258h101v315h335v-315h175v-258h-175v-451q0 -67 68 -67h107v-283z" />
    <glyph glyph-name="u" unicode="u" horiz-adv-x="1186" 
d="M1059 0h-328v90q-49 -49 -119 -75.5t-137 -26.5q-152 0 -248 94q-64 64 -87 139.5t-23 175.5v705h336v-660q0 -83 43.5 -117t91.5 -34t91.5 33.5t43.5 117.5v660h336v-1102z" />
    <glyph glyph-name="v" unicode="v" horiz-adv-x="1067" 
d="M1067 1102l-405 -1102h-256l-406 1102h352l183 -572l180 572h352z" />
    <glyph glyph-name="w" unicode="w" horiz-adv-x="1597" 
d="M1597 1102l-331 -1102h-269l-198 604l-199 -604h-268l-332 1102h354l138 -572l190 572h233l191 -572l137 572h354z" />
    <glyph glyph-name="x" unicode="x" 
d="M1139 0h-404l-168 279l-164 -279h-403l383 563l-369 539h404l149 -266l154 266h403l-368 -539z" />
    <glyph glyph-name="y" unicode="y" horiz-adv-x="1053" 
d="M1069 1102l-457 -1233q-32 -92 -86 -145q-86 -93 -247 -93h-127v303h71q47 0 72 17t41 65l31 93l-367 993h352l187 -572l178 572h352z" />
    <glyph glyph-name="z" unicode="z" horiz-adv-x="1001" 
d="M920 0h-859v248l420 551h-395v303h834v-248l-428 -551h428v-303z" />
    <glyph glyph-name="braceleft" unicode="{" horiz-adv-x="1061" 
d="M979 -152h-287q-157 0 -243 86q-99 99 -99 240v244q0 88 -35 123q-37 37 -114 37h-119v303h119q78 0 114 37q35 34 35 122v244q0 141 99 240q41 41 102.5 63.5t140.5 22.5h287v-303h-143q-88 0 -117 -29q-33 -33 -33 -131v-213q0 -166 -149 -205q149 -39 149 -205v-213
q0 -98 33 -131q28 -28 117 -28h143v-304z" />
    <glyph glyph-name="bar" unicode="|" horiz-adv-x="745" 
d="M541 -152h-336v1762h336v-1762z" />
    <glyph glyph-name="braceright" unicode="}" horiz-adv-x="1061" 
d="M979 578h-119q-76 0 -115 -37q-34 -35 -34 -123v-244q0 -141 -99 -240q-86 -86 -243 -86h-287v304h143q88 0 117 28q33 33 33 131v213q0 167 149 205q-149 38 -149 205v213q0 98 -33 131q-30 29 -117 29h-143v303h287q81 0 142.5 -23t100.5 -63q99 -99 99 -240v-244
q0 -88 34 -122q37 -37 115 -37h119v-303z" />
    <glyph glyph-name="asciitilde" unicode="~" horiz-adv-x="1323" 
d="M1262 580q-68 -68 -128 -111.5t-121.5 -64.5t-133.5 -21q-46 0 -87.5 6t-80 21t-84.5 43q-90 51 -172 51q-50 0 -90 -16.5t-91 -67.5l-213 213q104 104 189.5 150t189.5 46q75 0 130 -14.5t122 -54.5q87 -51 172 -51q47 0 89 16.5t91 67.5z" />
    <glyph glyph-name="nonbreakingspace" unicode="&#xa0;" horiz-adv-x="455" 
 />
    <glyph glyph-name="exclamdown" unicode="&#xa1;" horiz-adv-x="750" 
d="M506 772h-344v330h344v-330zM545 -356h-422l90 972h242z" />
    <glyph glyph-name="cent" unicode="&#xa2;" horiz-adv-x="1022" 
d="M985 356q-122 -121 -268 -155v-201h-258v201q-169 39 -275 178t-106 371q0 233 106.5 372t274.5 176v160h258v-160q146 -34 268 -155l-219 -219q-55 53 -90 67v-483q35 14 90 67zM500 512v475q-20 -15 -25 -20q-61 -64 -61 -217q0 -151 59 -215q14 -16 27 -23z" />
    <glyph glyph-name="sterling" unicode="&#xa3;" horiz-adv-x="1223" 
d="M1141 0h-946v569h-123v258h123v131q0 165 77.5 281t202.5 173.5t268 57.5q130 0 221 -36t177 -123l-236 -234q-35 37 -70.5 55.5t-91.5 18.5q-87 0 -138.5 -50t-51.5 -151v-123h190v-258h-190v-250h588v-319z" />
    <glyph glyph-name="currency" unicode="&#xa4;" horiz-adv-x="1380" 
d="M1284 233l-223 -223l-150 150q-110 -54 -221 -54q-110 0 -221 54l-150 -150l-223 223l150 150q-53 109 -53 221q0 113 53 221l-150 150l223 223l150 -149q113 53 221 53q110 0 221 -53l150 149l223 -223l-149 -150q53 -111 53 -221q0 -108 -53 -221zM885 604
q0 79 -58 137t-137 58q-78 0 -136 -58t-58 -137q0 -78 58 -136t136 -58q79 0 137 58t58 136z" />
    <glyph glyph-name="yen" unicode="&#xa5;" horiz-adv-x="1239" 
d="M1239 1458l-256 -504h123v-258h-256l-51 -102v-102h307v-259h-307v-233h-359v233h-307v259h307v102l-51 102h-256v258h123l-256 504h391l230 -524l227 524h391z" />
    <glyph glyph-name="brokenbar" unicode="&#xa6;" horiz-adv-x="745" 
d="M541 893h-336v717h336v-717zM541 -152h-336v717h336v-717z" />
    <glyph glyph-name="section" unicode="&#xa7;" horiz-adv-x="1057" 
d="M973 584q0 -49 -16.5 -96t-42 -82.5t-55.5 -64.5t-52 -44q66 -39 105.5 -103t39.5 -174q0 -129 -61 -217.5t-157.5 -130t-203.5 -41.5q-79 0 -152 20t-135 66t-98 120.5t-36 176.5h319q0 -36 27.5 -63t74.5 -27q49 0 76 25t27 59q0 74 -121 119l-111 41
q-110 41 -175.5 86.5t-99.5 119t-34 185.5q0 96 54 172t116 115q-61 39 -98 98t-37 160q0 94 41.5 176.5t133.5 136t233 53.5q142 0 233 -50t132.5 -133.5t41.5 -186.5h-311q0 44 -27 65t-69 21q-48 0 -72.5 -21.5t-24.5 -50.5q0 -58 115 -98l111 -41q166 -62 237.5 -143.5
t71.5 -247.5zM653 571q0 75 -41 109q-31 27 -80 27q-47 0 -79 -27q-41 -34 -41 -109q0 -74 41 -108q31 -27 79 -27t80 27q41 34 41 108z" />
    <glyph glyph-name="dieresis" unicode="&#xa8;" horiz-adv-x="1024" 
d="M881 1247h-275v297h275v-297zM418 1247h-275v297h275v-297z" />
    <glyph glyph-name="copyright" unicode="&#xa9;" horiz-adv-x="1683" 
d="M1583 729q0 -149 -58 -286t-159 -238t-238 -159t-286 -58t-285.5 57.5t-238.5 159t-160 238.5t-58 286t58 286t160 238.5t238.5 159t285.5 57.5t286 -58t238 -159t159 -238t58 -286zM1372 729q0 118 -39.5 218.5t-111 173t-169 112t-210.5 39.5q-149 0 -271 -69
t-191 -192.5t-69 -281.5q0 -156 69.5 -280.5t191 -193.5t270.5 -69t270.5 69t190.5 193.5t69 280.5zM1130 442q-38 -33 -79 -56.5t-90 -36.5t-101 -13q-153 0 -262 100.5t-109 292.5q0 130 52.5 219.5t137 131.5t181.5 42q147 0 270 -106l-137 -137q-33 29 -63.5 42
t-69.5 13q-73 0 -116.5 -53t-43.5 -152t43.5 -152t116.5 -53q39 0 68 13t65 43z" />
    <glyph glyph-name="ordfeminine" unicode="&#xaa;" horiz-adv-x="936" 
d="M834 580h-263v71q-41 -41 -85 -60.5t-111 -19.5q-129 0 -209 80q-78 78 -78 205q0 69 32.5 127.5t100 93.5t166.5 35h178v23q0 58 -31.5 84t-101.5 26q-50 0 -78 -13t-61 -46l-168 168q66 66 136 91t185 25q129 0 214.5 -35t129.5 -106t44 -178v-571zM565 909v25h-135
q-38 0 -60 -19.5t-22 -50.5q0 -30 22.5 -50.5t61.5 -20.5q43 0 66.5 6.5t40.5 23.5q26 27 26 86z" />
    <glyph glyph-name="guillemotleft" unicode="&#xab;" horiz-adv-x="1376" 
d="M1253 18l-559 555l559 553v-395l-166 -158l166 -159v-396zM621 18l-560 555l560 553v-395l-162 -158l162 -159v-396z" />
    <glyph glyph-name="logicalnot" unicode="&#xac;" 
d="M1051 180h-316v307h-647v316h963v-623z" />
    <glyph glyph-name="minus" unicode="&#xad;" 
d="M1038 446h-938v316h938v-316z" />
    <glyph glyph-name="registered" unicode="&#xae;" horiz-adv-x="1683" 
d="M1583 729q0 -149 -58 -286t-159 -238t-238 -159t-286 -58t-285.5 57.5t-238.5 159t-160 238.5t-58 286t58 286t160 238.5t238.5 159t285.5 57.5t286 -58t238 -159t159 -238t58 -286zM1372 729q0 118 -39.5 218.5t-111 173t-169 112t-210.5 39.5q-149 0 -271 -69
t-191 -192.5t-69 -281.5q0 -156 69.5 -280.5t191 -193.5t270.5 -69t270.5 69t190.5 193.5t69 280.5zM1188 342h-240l-117 289h-63v-289h-211v774h346q80 0 141 -35t92 -92t31 -123q0 -70 -36.5 -122.5t-88.5 -77.5zM956 866q0 33 -21.5 55.5t-60.5 22.5h-106v-156h106
q39 0 60.5 22.5t21.5 55.5z" />
    <glyph glyph-name="macron" unicode="&#xaf;" horiz-adv-x="1024" 
d="M846 1309h-668v215h668v-215z" />
    <glyph glyph-name="degree" unicode="&#xb0;" horiz-adv-x="995" 
d="M899 1094q0 -108 -54 -201t-147 -147t-200 -54q-83 0 -154 30.5t-129 88.5t-88.5 129t-30.5 154q0 107 54 200t147 147t201 54q83 0 156 -31t128 -86t86 -128t31 -156zM631 1094q0 55 -39 94t-94 39t-94 -39t-39 -94t39 -94t94 -39t94 39t39 94z" />
    <glyph glyph-name="plusminus" unicode="&#xb1;" 
d="M1038 760h-311v-311h-315v311h-312v315h312v311h315v-311h311v-315zM1038 0h-938v315h938v-315z" />
    <glyph glyph-name="twosuperior" unicode="&#xb2;" horiz-adv-x="752" 
d="M670 584h-588v213l309 315q27 27 36 42.5t9 39.5q0 27 -16 43t-43 16q-58 0 -58 -61h-237q0 89 40 150.5t107 92.5t148 31q129 0 211 -72.5t82 -199.5q0 -68 -28 -116t-93 -111l-178 -170h299v-213z" />
    <glyph glyph-name="threesuperior" unicode="&#xb3;" horiz-adv-x="768" 
d="M686 852q0 -91 -41.5 -153.5t-112 -93t-149.5 -30.5q-77 0 -146.5 29.5t-112 94.5t-42.5 163h235q0 -74 66 -74q31 0 48.5 18.5t17.5 53.5q0 27 -19.5 48.5t-48.5 21.5h-33v203h33q30 0 45.5 19.5t15.5 39.5q0 30 -16.5 45.5t-40.5 15.5t-40.5 -16.5t-16.5 -46.5h-238
q0 81 39.5 145t107.5 97.5t148 33.5q126 0 209.5 -74.5t83.5 -191.5q0 -63 -22.5 -99t-59.5 -65q39 -35 64.5 -76.5t25.5 -107.5z" />
    <glyph glyph-name="acute" unicode="&#xb4;" horiz-adv-x="1024" 
d="M838 1618l-242 -369h-203l101 369h344z" />
    <glyph glyph-name="mu" unicode="&#xb5;" horiz-adv-x="1196" 
d="M1069 0h-328v90q-49 -49 -119 -75.5t-137 -26.5h-22v-344h-336v1458h336v-660q0 -83 43.5 -117t91.5 -34t91.5 33.5t43.5 117.5v660h336v-1102z" />
    <glyph glyph-name="paragraph" unicode="&#xb6;" horiz-adv-x="1448" 
d="M1300 -356h-335v1495h-185v-1495h-336v966q-90 0 -180.5 55.5t-146.5 152t-56 212.5q0 144 63 240t173.5 142t257.5 46h745v-1814z" />
    <glyph glyph-name="cedilla" unicode="&#xb8;" horiz-adv-x="1024" 
d="M682 -115l-74 -295h-299l137 295h236z" />
    <glyph glyph-name="onesuperior" unicode="&#xb9;" horiz-adv-x="637" 
d="M504 584h-238v608l-194 -168v266l194 168h238v-874z" />
    <glyph glyph-name="ordmasculine" unicode="&#xba;" horiz-adv-x="954" 
d="M858 1020q0 -130 -21 -203.5t-77 -134.5q-30 -32 -69 -56.5t-92.5 -40.5t-121.5 -16q-177 0 -282 113q-38 41 -59 85.5t-30.5 105.5t-9.5 147q0 84 9.5 145.5t30.5 106.5t59 86q104 112 282 112q98 0 169 -32t114 -80q56 -61 77 -134.5t21 -203.5zM588 1020q0 74 -8 118
t-31 66q-25 25 -72 25t-71 -25q-23 -23 -31 -66.5t-8 -117.5t8 -117.5t31 -66.5q24 -25 71 -25t72 25q23 22 31 66t8 118z" />
    <glyph glyph-name="guillemotright" unicode="&#xbb;" horiz-adv-x="1376" 
d="M1315 573l-559 -555v396l162 159l-162 158v395zM682 573l-559 -555v396l164 159l-164 158v395z" />
    <glyph glyph-name="onequarter" unicode="&#xbc;" horiz-adv-x="1784" 
d="M1702 109h-53v-109h-224v109h-366v225l282 540h261l-285 -540h108v76h224v-76h53v-225zM1350 1458l-695 -1458h-258l695 1458h258zM504 584h-238v608l-194 -168v266l194 168h238v-874z" />
    <glyph glyph-name="onehalf" unicode="&#xbd;" horiz-adv-x="1851" 
d="M1769 0h-587v213l309 315q27 27 36 43.5t9 38.5q0 27 -15.5 43.5t-43.5 16.5q-58 0 -58 -62h-237q0 88 40 150.5t107 93.5t148 31q129 0 210.5 -73.5t81.5 -199.5q0 -68 -27.5 -115.5t-92.5 -111.5l-179 -170h299v-213zM1350 1458l-695 -1458h-258l695 1458h258zM504 584
h-238v608l-194 -168v266l194 168h238v-874z" />
    <glyph glyph-name="threequarters" unicode="&#xbe;" horiz-adv-x="1825" 
d="M1743 109h-53v-109h-224v109h-366v225l282 540h260l-284 -540h108v76h224v-76h53v-225zM1391 1458l-695 -1458h-258l695 1458h258zM686 852q0 -91 -41.5 -153.5t-112 -93t-149.5 -30.5q-77 0 -146.5 29.5t-112 94.5t-42.5 163h235q0 -74 66 -74q31 0 48.5 18.5t17.5 53.5
q0 27 -19.5 48.5t-48.5 21.5h-33v203h33q30 0 45.5 19.5t15.5 39.5q0 30 -16.5 45.5t-40.5 15.5t-40.5 -16.5t-16.5 -46.5h-238q0 81 39.5 145t107.5 97.5t148 33.5q126 0 209.5 -74.5t83.5 -191.5q0 -63 -22.5 -99t-59.5 -65q39 -35 64.5 -76.5t25.5 -107.5z" />
    <glyph glyph-name="questiondown" unicode="&#xbf;" horiz-adv-x="1102" 
d="M684 772h-344v330h344v-330zM979 63q0 -134 -61.5 -232t-166.5 -149t-231 -51q-92 0 -175 28.5t-147 82.5t-100.5 135.5t-36.5 183.5q0 74 27 134.5t78 128.5l141 178q37 43 37 96v18h336v-47q0 -68 -19 -121t-65 -106l-143 -168q-56 -63 -56 -115q0 -57 32 -91t91 -34
q62 0 92.5 35t30.5 94h336z" />
    <glyph glyph-name="Agrave" unicode="&#xc0;" horiz-adv-x="1337" 
d="M1337 0h-374l-68 217h-449l-71 -217h-375l530 1458h277zM801 516l-123 389l-131 -389h254zM787 1601h-203l-242 369h344z" />
    <glyph glyph-name="Aacute" unicode="&#xc1;" horiz-adv-x="1337" 
d="M1337 0h-374l-68 217h-449l-71 -217h-375l530 1458h277zM801 516l-123 389l-131 -389h254zM994 1970l-242 -369h-203l101 369h344z" />
    <glyph glyph-name="Acircumflex" unicode="&#xc2;" horiz-adv-x="1337" 
d="M1337 0h-374l-68 217h-449l-71 -217h-375l530 1458h277zM801 516l-123 389l-131 -389h254zM1076 1601h-246l-162 170l-162 -170h-246l279 367h258z" />
    <glyph glyph-name="Atilde" unicode="&#xc3;" horiz-adv-x="1337" 
d="M1337 0h-374l-68 217h-449l-71 -217h-375l530 1458h277zM801 516l-123 389l-131 -389h254zM1063 1751q-67 -67 -124 -98t-128 -31q-48 0 -83 8.5t-83 36.5q-60 35 -114 35q-31 0 -57 -10t-62 -46l-139 142q69 69 124 99t126 30q89 0 165 -45q59 -35 113 -35q31 0 58.5 11
t60.5 44z" />
    <glyph glyph-name="Adieresis" unicode="&#xc4;" horiz-adv-x="1337" 
d="M1337 0h-374l-68 217h-449l-71 -217h-375l530 1458h277zM801 516l-123 389l-131 -389h254zM1037 1599h-275v297h275v-297zM574 1599h-275v297h275v-297z" />
    <glyph glyph-name="Aring" unicode="&#xc5;" horiz-adv-x="1337" 
d="M1337 0h-374l-68 217h-449l-71 -217h-375l530 1458h277zM801 516l-123 389l-131 -389h254zM951 1829q0 -75 -38 -141t-103.5 -104t-141.5 -38q-57 0 -108 22t-91 62t-62 91t-22 108q0 75 38 141t103.5 104t141.5 38q75 0 141 -38t104 -103t38 -142zM774 1829q0 43 -31 75
t-75 32t-75 -32t-31 -75q0 -44 31 -75t75 -31t75 31t31 75z" />
    <glyph glyph-name="AE" unicode="&#xc6;" horiz-adv-x="2075" 
d="M1968 0h-991v305h-434l-158 -305h-385l758 1458h1210v-319h-633v-244h541v-320h-541v-256h633v-319zM977 604v535l-279 -535h279z" />
    <glyph glyph-name="Ccedilla" unicode="&#xc7;" horiz-adv-x="1247" 
d="M1206 463q-19 -116 -68.5 -207.5t-123 -150.5t-165.5 -88t-196 -29q-243 0 -405 164q-96 96 -122 218t-26 310v49v49q0 188 26 310.5t122 218.5q82 82 180 122.5t225 40.5q109 0 200 -29.5t163 -88t121.5 -149t68.5 -208.5h-364q-19 71 -61.5 113.5t-125.5 42.5
q-46 0 -82.5 -17t-58.5 -44q-19 -24 -30.5 -57.5t-18 -102t-6.5 -201.5q0 -177 13 -248.5t42 -111.5q48 -62 141 -62q81 0 124.5 42.5t62.5 113.5h364zM788 -115l-74 -295h-299l137 295h236z" />
    <glyph glyph-name="Egrave" unicode="&#xc8;" horiz-adv-x="1245" 
d="M1139 0h-992v1458h992v-319h-633v-244h541v-320h-541v-256h633v-319zM750 1601h-203l-242 369h344z" />
    <glyph glyph-name="Eacute" unicode="&#xc9;" horiz-adv-x="1245" 
d="M1139 0h-992v1458h992v-319h-633v-244h541v-320h-541v-256h633v-319zM957 1970l-242 -369h-203l101 369h344z" />
    <glyph glyph-name="Ecircumflex" unicode="&#xca;" horiz-adv-x="1245" 
d="M1139 0h-992v1458h992v-319h-633v-244h541v-320h-541v-256h633v-319zM1039 1601h-246l-162 170l-162 -170h-246l279 367h258z" />
    <glyph glyph-name="Edieresis" unicode="&#xcb;" horiz-adv-x="1245" 
d="M1139 0h-992v1458h992v-319h-633v-244h541v-320h-541v-256h633v-319zM1000 1599h-275v297h275v-297zM537 1599h-275v297h275v-297z" />
    <glyph glyph-name="Igrave" unicode="&#xcc;" horiz-adv-x="653" 
d="M506 0h-359v1458h359v-1458zM461 1601h-203l-242 369h344z" />
    <glyph glyph-name="Iacute" unicode="&#xcd;" horiz-adv-x="653" 
d="M506 0h-359v1458h359v-1458zM654 1970l-242 -369h-203l101 369h344z" />
    <glyph glyph-name="Icircumflex" unicode="&#xce;" horiz-adv-x="653" 
d="M506 0h-359v1458h359v-1458zM723 1601h-246l-162 170l-162 -170h-246l279 367h258z" />
    <glyph glyph-name="Idieresis" unicode="&#xcf;" horiz-adv-x="653" 
d="M506 0h-359v1458h359v-1458zM695 1599h-275v297h275v-297zM232 1599h-275v297h275v-297z" />
    <glyph glyph-name="Eth" unicode="&#xd0;" horiz-adv-x="1391" 
d="M1290 729v-119q0 -158 -28.5 -265.5t-122.5 -201.5q-73 -73 -175 -108t-219 -35h-540v600h-133v274h133v584h540q117 0 219 -35t175 -108q94 -92 122.5 -200.5t28.5 -266.5v-119zM932 729q0 182 -8 240t-31 88q-55 82 -172 82h-158v-265h185v-274h-185v-281h158
q117 0 172 82q23 32 31 88.5t8 239.5z" />
    <glyph glyph-name="Ntilde" unicode="&#xd1;" horiz-adv-x="1434" 
d="M1286 0h-313l-467 733v-733h-359v1458h314l467 -733v733h358v-1458zM1112 1751q-67 -67 -124 -98t-128 -31q-48 0 -83 8.5t-83 36.5q-60 35 -114 35q-31 0 -57 -10t-62 -46l-139 142q69 69 124 99t126 30q89 0 165 -45q59 -35 113 -35q31 0 58.5 11t60.5 44z" />
    <glyph glyph-name="Ograve" unicode="&#xd2;" horiz-adv-x="1311" 
d="M1210 729v-49q0 -122 -8.5 -210t-40.5 -170t-98 -148q-81 -81 -178.5 -122.5t-229.5 -41.5q-89 0 -160.5 18.5t-132 54.5t-114.5 91q-96 96 -122 218t-26 310v49v49q0 188 26 310.5t122 218.5q83 83 179.5 123t227.5 40q132 0 229 -40.5t179 -122.5q66 -66 98 -148.5
t40.5 -170.5t8.5 -210v-49zM852 729q0 186 -12.5 254t-40.5 104q-20 28 -58.5 46t-85.5 18q-46 0 -83 -17.5t-60 -46.5q-18 -23 -29.5 -56.5t-17.5 -103t-6 -198.5q0 -128 6 -197.5t17.5 -102.5t29.5 -56q51 -66 143 -66q93 0 144 66q28 39 40.5 104.5t12.5 251.5zM774 1601
h-203l-242 369h344z" />
    <glyph glyph-name="Oacute" unicode="&#xd3;" horiz-adv-x="1311" 
d="M1210 729v-49q0 -122 -8.5 -210t-40.5 -170t-98 -148q-81 -81 -178.5 -122.5t-229.5 -41.5q-89 0 -160.5 18.5t-132 54.5t-114.5 91q-96 96 -122 218t-26 310v49v49q0 188 26 310.5t122 218.5q83 83 179.5 123t227.5 40q132 0 229 -40.5t179 -122.5q66 -66 98 -148.5
t40.5 -170.5t8.5 -210v-49zM852 729q0 186 -12.5 254t-40.5 104q-20 28 -58.5 46t-85.5 18q-46 0 -83 -17.5t-60 -46.5q-18 -23 -29.5 -56.5t-17.5 -103t-6 -198.5q0 -128 6 -197.5t17.5 -102.5t29.5 -56q51 -66 143 -66q93 0 144 66q28 39 40.5 104.5t12.5 251.5zM981 1970
l-242 -369h-203l101 369h344z" />
    <glyph glyph-name="Ocircumflex" unicode="&#xd4;" horiz-adv-x="1311" 
d="M1210 729v-49q0 -122 -8.5 -210t-40.5 -170t-98 -148q-81 -81 -178.5 -122.5t-229.5 -41.5q-89 0 -160.5 18.5t-132 54.5t-114.5 91q-96 96 -122 218t-26 310v49v49q0 188 26 310.5t122 218.5q83 83 179.5 123t227.5 40q132 0 229 -40.5t179 -122.5q66 -66 98 -148.5
t40.5 -170.5t8.5 -210v-49zM852 729q0 186 -12.5 254t-40.5 104q-20 28 -58.5 46t-85.5 18q-46 0 -83 -17.5t-60 -46.5q-18 -23 -29.5 -56.5t-17.5 -103t-6 -198.5q0 -128 6 -197.5t17.5 -102.5t29.5 -56q51 -66 143 -66q93 0 144 66q28 39 40.5 104.5t12.5 251.5z
M1063 1601h-246l-162 170l-162 -170h-246l279 367h258z" />
    <glyph glyph-name="Otilde" unicode="&#xd5;" horiz-adv-x="1311" 
d="M1210 729v-49q0 -122 -8.5 -210t-40.5 -170t-98 -148q-81 -81 -178.5 -122.5t-229.5 -41.5q-89 0 -160.5 18.5t-132 54.5t-114.5 91q-96 96 -122 218t-26 310v49v49q0 188 26 310.5t122 218.5q83 83 179.5 123t227.5 40q132 0 229 -40.5t179 -122.5q66 -66 98 -148.5
t40.5 -170.5t8.5 -210v-49zM852 729q0 186 -12.5 254t-40.5 104q-20 28 -58.5 46t-85.5 18q-46 0 -83 -17.5t-60 -46.5q-18 -23 -29.5 -56.5t-17.5 -103t-6 -198.5q0 -128 6 -197.5t17.5 -102.5t29.5 -56q51 -66 143 -66q93 0 144 66q28 39 40.5 104.5t12.5 251.5z
M1050 1751q-67 -67 -124 -98t-128 -31q-48 0 -83 8.5t-83 36.5q-60 35 -114 35q-31 0 -57 -10t-62 -46l-139 142q69 69 124 99t126 30q89 0 165 -45q59 -35 113 -35q31 0 58.5 11t60.5 44z" />
    <glyph glyph-name="Odieresis" unicode="&#xd6;" horiz-adv-x="1311" 
d="M1210 729v-49q0 -122 -8.5 -210t-40.5 -170t-98 -148q-81 -81 -178.5 -122.5t-229.5 -41.5q-89 0 -160.5 18.5t-132 54.5t-114.5 91q-96 96 -122 218t-26 310v49v49q0 188 26 310.5t122 218.5q83 83 179.5 123t227.5 40q132 0 229 -40.5t179 -122.5q66 -66 98 -148.5
t40.5 -170.5t8.5 -210v-49zM852 729q0 186 -12.5 254t-40.5 104q-20 28 -58.5 46t-85.5 18q-46 0 -83 -17.5t-60 -46.5q-18 -23 -29.5 -56.5t-17.5 -103t-6 -198.5q0 -128 6 -197.5t17.5 -102.5t29.5 -56q51 -66 143 -66q93 0 144 66q28 39 40.5 104.5t12.5 251.5z
M1024 1599h-275v297h275v-297zM561 1599h-275v297h275v-297z" />
    <glyph glyph-name="multiply" unicode="&#xd7;" 
d="M1059 330l-213 -213l-277 276l-274 -276l-215 213l278 274l-278 277l213 213l274 -277l277 277l215 -213l-279 -277z" />
    <glyph glyph-name="Oslash" unicode="&#xd8;" horiz-adv-x="1311" 
d="M1210 729v-49q0 -122 -8.5 -210t-40.5 -170t-98 -148q-81 -81 -178.5 -122.5t-229.5 -41.5q-123 0 -215 37l-55 -115h-242l113 233l-8 9q-96 96 -122 218t-26 310v49v49q0 188 26 310.5t122 218.5q83 83 179.5 123t227.5 40q123 0 215 -36l56 114h241l-112 -233l8 -8
q66 -66 98 -148.5t40.5 -170.5t8.5 -210v-49zM745 1130q-39 21 -90 21q-46 0 -83 -17.5t-60 -46.5q-18 -23 -29.5 -56.5t-17.5 -103t-6 -198.5q0 -119 6 -190zM852 729q0 119 -6 191l-281 -590q38 -23 90 -23q93 0 144 66q28 39 40.5 104.5t12.5 251.5z" />
    <glyph glyph-name="Ugrave" unicode="&#xd9;" horiz-adv-x="1352" 
d="M1229 512q0 -115 -43 -213t-120 -168t-178 -106.5t-214 -36.5q-149 0 -276.5 65t-201 184.5t-73.5 274.5v946h358v-938q0 -100 51.5 -156.5t141.5 -56.5q58 0 103 25t69 73t24 115v938h359v-946zM795 1601h-203l-242 369h344z" />
    <glyph glyph-name="Uacute" unicode="&#xda;" horiz-adv-x="1352" 
d="M1229 512q0 -115 -43 -213t-120 -168t-178 -106.5t-214 -36.5q-149 0 -276.5 65t-201 184.5t-73.5 274.5v946h358v-938q0 -100 51.5 -156.5t141.5 -56.5q58 0 103 25t69 73t24 115v938h359v-946zM1002 1970l-242 -369h-203l101 369h344z" />
    <glyph glyph-name="Ucircumflex" unicode="&#xdb;" horiz-adv-x="1352" 
d="M1229 512q0 -115 -43 -213t-120 -168t-178 -106.5t-214 -36.5q-149 0 -276.5 65t-201 184.5t-73.5 274.5v946h358v-938q0 -100 51.5 -156.5t141.5 -56.5q58 0 103 25t69 73t24 115v938h359v-946zM1084 1601h-246l-162 170l-162 -170h-246l279 367h258z" />
    <glyph glyph-name="Udieresis" unicode="&#xdc;" horiz-adv-x="1352" 
d="M1229 512q0 -115 -43 -213t-120 -168t-178 -106.5t-214 -36.5q-149 0 -276.5 65t-201 184.5t-73.5 274.5v946h358v-938q0 -100 51.5 -156.5t141.5 -56.5q58 0 103 25t69 73t24 115v938h359v-946zM1045 1599h-275v297h275v-297zM582 1599h-275v297h275v-297z" />
    <glyph glyph-name="Yacute" unicode="&#xdd;" horiz-adv-x="1239" 
d="M1239 1458l-440 -864v-594h-359v594l-440 864h391l230 -524l227 524h391zM944 1970l-242 -369h-203l101 369h344z" />
    <glyph glyph-name="Thorn" unicode="&#xde;" horiz-adv-x="1284" 
d="M1223 737q0 -123 -58.5 -230t-170.5 -173t-269 -66h-219v-268h-359v1458h359v-252h219q157 0 269 -65.5t170.5 -172.5t58.5 -231zM864 737q0 39 -18.5 73t-54 54.5t-82.5 20.5h-203v-295h203q47 0 82.5 20.5t54 54.5t18.5 72z" />
    <glyph glyph-name="germandbls" unicode="&#xdf;" horiz-adv-x="1196" 
d="M1094 354q0 -172 -86 -262q-47 -45 -115.5 -68.5t-167.5 -23.5h-107v283h39q48 0 72 24q27 24 27 74v264q0 47 -25 72q-23 26 -74 26h-39v258h48q90 0 90 86q0 39 -25 60q-34 31 -113 31q-86 0 -119.5 -34.5t-33.5 -109.5v-1034h-338v1063q0 109 37 187.5t102.5 126.5
t154 70.5t197.5 22.5t196 -22t149 -67.5t96.5 -116t34.5 -164.5q0 -152 -125 -223q56 -26 90.5 -73.5t34.5 -137.5v-312z" />
    <glyph glyph-name="agrave" unicode="&#xe0;" horiz-adv-x="1098" 
d="M989 0h-327v90q-55 -53 -108 -76.5t-138 -23.5q-166 0 -264 98q-97 97 -97 258q0 88 40 160t124.5 116t210.5 44h223v28q0 76 -38.5 106.5t-127.5 30.5q-62 0 -98.5 -16t-77.5 -57l-209 209q86 85 173.5 116t228.5 31q238 0 361.5 -99.5t123.5 -299.5v-715zM653 414v28
h-170q-48 0 -77 -24t-29 -64q0 -39 29 -65.5t81 -26.5q49 0 78 7.5t56 33.5q32 31 32 111zM664 1249h-203l-242 369h344z" />
    <glyph glyph-name="aacute" unicode="&#xe1;" horiz-adv-x="1098" 
d="M989 0h-327v90q-55 -53 -108 -76.5t-138 -23.5q-166 0 -264 98q-97 97 -97 258q0 88 40 160t124.5 116t210.5 44h223v28q0 76 -38.5 106.5t-127.5 30.5q-62 0 -98.5 -16t-77.5 -57l-209 209q86 85 173.5 116t228.5 31q238 0 361.5 -99.5t123.5 -299.5v-715zM653 414v28
h-170q-48 0 -77 -24t-29 -64q0 -39 29 -65.5t81 -26.5q49 0 78 7.5t56 33.5q32 31 32 111zM871 1618l-242 -369h-203l101 369h344z" />
    <glyph glyph-name="acircumflex" unicode="&#xe2;" horiz-adv-x="1098" 
d="M989 0h-327v90q-55 -53 -108 -76.5t-138 -23.5q-166 0 -264 98q-97 97 -97 258q0 88 40 160t124.5 116t210.5 44h223v28q0 76 -38.5 106.5t-127.5 30.5q-62 0 -98.5 -16t-77.5 -57l-209 209q86 85 173.5 116t228.5 31q238 0 361.5 -99.5t123.5 -299.5v-715zM653 414v28
h-170q-48 0 -77 -24t-29 -64q0 -39 29 -65.5t81 -26.5q49 0 78 7.5t56 33.5q32 31 32 111zM953 1249h-246l-162 170l-162 -170h-246l279 367h258z" />
    <glyph glyph-name="atilde" unicode="&#xe3;" horiz-adv-x="1098" 
d="M989 0h-327v90q-55 -53 -108 -76.5t-138 -23.5q-166 0 -264 98q-97 97 -97 258q0 88 40 160t124.5 116t210.5 44h223v28q0 76 -38.5 106.5t-127.5 30.5q-62 0 -98.5 -16t-77.5 -57l-209 209q86 85 173.5 116t228.5 31q238 0 361.5 -99.5t123.5 -299.5v-715zM653 414v28
h-170q-48 0 -77 -24t-29 -64q0 -39 29 -65.5t81 -26.5q49 0 78 7.5t56 33.5q32 31 32 111zM940 1399q-67 -67 -124 -98t-128 -31q-48 0 -83 8.5t-83 36.5q-60 35 -114 35q-31 0 -57 -10t-62 -46l-139 142q69 69 124 99t126 30q89 0 165 -45q59 -35 113 -35q31 0 58.5 11
t60.5 44z" />
    <glyph glyph-name="adieresis" unicode="&#xe4;" horiz-adv-x="1098" 
d="M989 0h-327v90q-55 -53 -108 -76.5t-138 -23.5q-166 0 -264 98q-97 97 -97 258q0 88 40 160t124.5 116t210.5 44h223v28q0 76 -38.5 106.5t-127.5 30.5q-62 0 -98.5 -16t-77.5 -57l-209 209q86 85 173.5 116t228.5 31q238 0 361.5 -99.5t123.5 -299.5v-715zM653 414v28
h-170q-48 0 -77 -24t-29 -64q0 -39 29 -65.5t81 -26.5q49 0 78 7.5t56 33.5q32 31 32 111zM914 1247h-275v297h275v-297zM451 1247h-275v297h275v-297z" />
    <glyph glyph-name="aring" unicode="&#xe5;" horiz-adv-x="1098" 
d="M989 0h-327v90q-55 -53 -108 -76.5t-138 -23.5q-166 0 -264 98q-97 97 -97 258q0 88 40 160t124.5 116t210.5 44h223v28q0 76 -38.5 106.5t-127.5 30.5q-62 0 -98.5 -16t-77.5 -57l-209 209q86 85 173.5 116t228.5 31q238 0 361.5 -99.5t123.5 -299.5v-715zM653 414v28
h-170q-48 0 -77 -24t-29 -64q0 -39 29 -65.5t81 -26.5q49 0 78 7.5t56 33.5q32 31 32 111zM828 1497q0 -75 -38 -141t-103.5 -104t-141.5 -38q-57 0 -108 22t-91 62t-62 91t-22 108q0 75 38 141t103.5 104t141.5 38q75 0 141 -38t104 -103t38 -142zM651 1497q0 43 -31 75
t-75 32t-75 -32t-31 -75q0 -44 31 -75t75 -31t75 31t31 75z" />
    <glyph glyph-name="ae" unicode="&#xe6;" horiz-adv-x="1720" 
d="M1642 442h-659q0 -71 53 -121.5t142 -50.5q82 0 130.5 22t96.5 70l201 -200q-91 -91 -185.5 -132.5t-242.5 -41.5q-253 0 -385 133q-93 -85 -176.5 -109t-200.5 -24q-164 0 -264 100q-97 97 -97 258q0 88 40 160t124.5 116t210.5 44h223v28q0 76 -38.5 106.5t-127.5 30.5
q-62 0 -98.5 -16t-77.5 -57l-209 209q86 85 173.5 116t228.5 31q227 0 348 -92q121 92 295 92q119 0 211 -40t155 -111.5t96 -167t33 -203.5v-150zM1311 666q0 49 -19 86q-16 38 -53 62t-92 24t-91.5 -23.5t-54.5 -62.5q-18 -37 -18 -86h328zM653 414v28h-170q-48 0 -77 -24
t-29 -64q0 -39 29 -65.5t81 -26.5q49 0 78 7.5t56 33.5q32 31 32 111z" />
    <glyph glyph-name="ccedilla" unicode="&#xe7;" horiz-adv-x="973" 
d="M936 129q-44 -44 -100.5 -76.5t-123.5 -48.5t-139 -16q-117 0 -227.5 45t-189 172t-78.5 346t78.5 346t189 172t227.5 45q112 0 203 -36t160 -105l-227 -228q-66 66 -136 66q-61 0 -104 -43q-55 -58 -55 -217t55 -217q43 -43 104 -43q71 0 136 65zM682 -115l-74 -295
h-299l137 295h236z" />
    <glyph glyph-name="egrave" unicode="&#xe8;" horiz-adv-x="1145" 
d="M1067 442h-659q0 -72 52.5 -122t141.5 -50q84 0 131.5 22t95.5 70l201 -200q-91 -91 -185 -132.5t-243 -41.5q-524 0 -524 563q0 265 136.5 414t356.5 149q155 0 267.5 -69t170.5 -187t58 -266v-150zM735 666q0 49 -18 86q-16 37 -53.5 61.5t-92.5 24.5t-92.5 -24.5
t-52.5 -61.5q-18 -37 -18 -86h327zM699 1249h-203l-242 369h344z" />
    <glyph glyph-name="eacute" unicode="&#xe9;" horiz-adv-x="1145" 
d="M1067 442h-659q0 -72 52.5 -122t141.5 -50q84 0 131.5 22t95.5 70l201 -200q-91 -91 -185 -132.5t-243 -41.5q-524 0 -524 563q0 265 136.5 414t356.5 149q155 0 267.5 -69t170.5 -187t58 -266v-150zM735 666q0 49 -18 86q-16 37 -53.5 61.5t-92.5 24.5t-92.5 -24.5
t-52.5 -61.5q-18 -37 -18 -86h327zM906 1618l-242 -369h-203l101 369h344z" />
    <glyph glyph-name="ecircumflex" unicode="&#xea;" horiz-adv-x="1145" 
d="M1067 442h-659q0 -72 52.5 -122t141.5 -50q84 0 131.5 22t95.5 70l201 -200q-91 -91 -185 -132.5t-243 -41.5q-524 0 -524 563q0 265 136.5 414t356.5 149q155 0 267.5 -69t170.5 -187t58 -266v-150zM735 666q0 49 -18 86q-16 37 -53.5 61.5t-92.5 24.5t-92.5 -24.5
t-52.5 -61.5q-18 -37 -18 -86h327zM988 1249h-246l-162 170l-162 -170h-246l279 367h258z" />
    <glyph glyph-name="edieresis" unicode="&#xeb;" horiz-adv-x="1145" 
d="M1067 442h-659q0 -72 52.5 -122t141.5 -50q84 0 131.5 22t95.5 70l201 -200q-91 -91 -185 -132.5t-243 -41.5q-524 0 -524 563q0 265 136.5 414t356.5 149q155 0 267.5 -69t170.5 -187t58 -266v-150zM735 666q0 49 -18 86q-16 37 -53.5 61.5t-92.5 24.5t-92.5 -24.5
t-52.5 -61.5q-18 -37 -18 -86h327zM949 1247h-275v297h275v-297zM486 1247h-275v297h275v-297z" />
    <glyph glyph-name="igrave" unicode="&#xec;" horiz-adv-x="590" 
d="M463 0h-336v1102h336v-1102zM453 1249h-203l-242 369h344z" />
    <glyph glyph-name="iacute" unicode="&#xed;" horiz-adv-x="590" 
d="M463 0h-336v1102h336v-1102zM584 1618l-242 -369h-203l101 369h344z" />
    <glyph glyph-name="icircumflex" unicode="&#xee;" horiz-adv-x="590" 
d="M463 0h-336v1102h336v-1102zM703 1249h-246l-162 170l-162 -170h-246l279 367h258z" />
    <glyph glyph-name="idieresis" unicode="&#xef;" horiz-adv-x="590" 
d="M463 0h-336v1102h336v-1102zM668 1247h-275v297h275v-297zM205 1247h-275v297h275v-297z" />
    <glyph glyph-name="eth" unicode="&#xf0;" horiz-adv-x="1126" 
d="M1022 530q0 -157 -25.5 -246.5t-91.5 -160.5q-125 -135 -342 -135q-215 0 -342 135q-66 71 -91.5 160.5t-25.5 246.5t25.5 247t91.5 161q56 60 141 96q75 34 158 37l-41 82h-231v233h117l-46 95h361l45 -95h199v-233h-84l53 -117q52 -113 77 -180.5t38.5 -144.5
t13.5 -181zM686 530q0 88 -8.5 137t-34.5 74q-27 29 -80 29q-51 0 -80 -29q-26 -26 -34.5 -74.5t-8.5 -136.5q0 -63 3 -98t12 -64.5t28 -48.5q30 -28 80 -28q52 0 79.5 27.5t35.5 76t8 135.5z" />
    <glyph glyph-name="ntilde" unicode="&#xf1;" horiz-adv-x="1186" 
d="M1069 0h-336v659q0 85 -43.5 118.5t-91.5 33.5t-91.5 -34t-43.5 -118v-659h-336v1102h328v-90q48 48 118.5 75t137.5 27q153 0 247 -94q65 -63 88 -139t23 -176v-705zM993 1399q-67 -67 -124 -98t-128 -31q-48 0 -83 8.5t-83 36.5q-60 35 -114 35q-31 0 -57 -10t-62 -46
l-139 142q69 69 124 99t126 30q89 0 165 -45q59 -35 113 -35q31 0 58.5 11t60.5 44z" />
    <glyph glyph-name="ograve" unicode="&#xf2;" horiz-adv-x="1126" 
d="M1038 551q0 -163 -26 -255.5t-94 -166.5q-133 -141 -355 -141q-223 0 -354 141q-45 48 -72 105t-38 130.5t-11 186.5q0 112 11 185.5t38 130t72 106.5q58 61 145 101t209 40t209.5 -39.5t145.5 -101.5q68 -74 94 -167t26 -255zM702 551q0 96 -9.5 148.5t-39.5 80.5
q-30 31 -90 31q-59 0 -90 -31q-30 -30 -39.5 -85.5t-9.5 -143.5t9.5 -142.5t39.5 -86.5q31 -31 90 -31q60 0 90 30.5t39.5 82t9.5 147.5zM682 1249h-203l-242 369h344z" />
    <glyph glyph-name="oacute" unicode="&#xf3;" horiz-adv-x="1126" 
d="M1038 551q0 -163 -26 -255.5t-94 -166.5q-133 -141 -355 -141q-223 0 -354 141q-45 48 -72 105t-38 130.5t-11 186.5q0 112 11 185.5t38 130t72 106.5q58 61 145 101t209 40t209.5 -39.5t145.5 -101.5q68 -74 94 -167t26 -255zM702 551q0 96 -9.5 148.5t-39.5 80.5
q-30 31 -90 31q-59 0 -90 -31q-30 -30 -39.5 -85.5t-9.5 -143.5t9.5 -142.5t39.5 -86.5q31 -31 90 -31q60 0 90 30.5t39.5 82t9.5 147.5zM889 1618l-242 -369h-203l101 369h344z" />
    <glyph glyph-name="ocircumflex" unicode="&#xf4;" horiz-adv-x="1126" 
d="M1038 551q0 -163 -26 -255.5t-94 -166.5q-133 -141 -355 -141q-223 0 -354 141q-45 48 -72 105t-38 130.5t-11 186.5q0 112 11 185.5t38 130t72 106.5q58 61 145 101t209 40t209.5 -39.5t145.5 -101.5q68 -74 94 -167t26 -255zM702 551q0 96 -9.5 148.5t-39.5 80.5
q-30 31 -90 31q-59 0 -90 -31q-30 -30 -39.5 -85.5t-9.5 -143.5t9.5 -142.5t39.5 -86.5q31 -31 90 -31q60 0 90 30.5t39.5 82t9.5 147.5zM971 1249h-246l-162 170l-162 -170h-246l279 367h258z" />
    <glyph glyph-name="otilde" unicode="&#xf5;" horiz-adv-x="1126" 
d="M1038 551q0 -163 -26 -255.5t-94 -166.5q-133 -141 -355 -141q-223 0 -354 141q-45 48 -72 105t-38 130.5t-11 186.5q0 112 11 185.5t38 130t72 106.5q58 61 145 101t209 40t209.5 -39.5t145.5 -101.5q68 -74 94 -167t26 -255zM702 551q0 96 -9.5 148.5t-39.5 80.5
q-30 31 -90 31q-59 0 -90 -31q-30 -30 -39.5 -85.5t-9.5 -143.5t9.5 -142.5t39.5 -86.5q31 -31 90 -31q60 0 90 30.5t39.5 82t9.5 147.5zM958 1399q-67 -67 -124 -98t-128 -31q-48 0 -83 8.5t-83 36.5q-60 35 -114 35q-31 0 -57 -10t-62 -46l-139 142q69 69 124 99t126 30
q89 0 165 -45q59 -35 113 -35q31 0 58.5 11t60.5 44z" />
    <glyph glyph-name="odieresis" unicode="&#xf6;" horiz-adv-x="1126" 
d="M1038 551q0 -163 -26 -255.5t-94 -166.5q-133 -141 -355 -141q-223 0 -354 141q-45 48 -72 105t-38 130.5t-11 186.5q0 112 11 185.5t38 130t72 106.5q58 61 145 101t209 40t209.5 -39.5t145.5 -101.5q68 -74 94 -167t26 -255zM702 551q0 96 -9.5 148.5t-39.5 80.5
q-30 31 -90 31q-59 0 -90 -31q-30 -30 -39.5 -85.5t-9.5 -143.5t9.5 -142.5t39.5 -86.5q31 -31 90 -31q60 0 90 30.5t39.5 82t9.5 147.5zM932 1247h-275v297h275v-297zM469 1247h-275v297h275v-297z" />
    <glyph glyph-name="divide" unicode="&#xf7;" 
d="M729 889h-319v319h319v-319zM1051 446h-963v316h963v-316zM729 0h-319v319h319v-319z" />
    <glyph glyph-name="oslash" unicode="&#xf8;" horiz-adv-x="1126" 
d="M1038 551q0 -163 -26 -255.5t-94 -166.5q-133 -141 -355 -141q-118 0 -213 41l-69 -119h-191l125 213q-82 87 -104.5 182.5t-22.5 245.5q0 112 11 185.5t38 130t72 106.5q58 61 145 101t209 40q120 0 213 -41l70 119h190l-125 -213q57 -59 84 -124.5t35 -136t8 -167.5z
M633 797q-27 14 -70 14q-59 0 -90 -31q-30 -30 -39.5 -85.5t-9.5 -143.5q0 -74 4 -102zM702 551q0 74 -4 102l-204 -348q25 -14 69 -14q60 0 90 30.5t39.5 82t9.5 147.5z" />
    <glyph glyph-name="ugrave" unicode="&#xf9;" horiz-adv-x="1186" 
d="M1059 0h-328v90q-49 -49 -119 -75.5t-137 -26.5q-152 0 -248 94q-64 64 -87 139.5t-23 175.5v705h336v-660q0 -83 43.5 -117t91.5 -34t91.5 33.5t43.5 117.5v660h336v-1102zM707 1249h-203l-242 369h344z" />
    <glyph glyph-name="uacute" unicode="&#xfa;" horiz-adv-x="1186" 
d="M1059 0h-328v90q-49 -49 -119 -75.5t-137 -26.5q-152 0 -248 94q-64 64 -87 139.5t-23 175.5v705h336v-660q0 -83 43.5 -117t91.5 -34t91.5 33.5t43.5 117.5v660h336v-1102zM914 1618l-242 -369h-203l101 369h344z" />
    <glyph glyph-name="ucircumflex" unicode="&#xfb;" horiz-adv-x="1186" 
d="M1059 0h-328v90q-49 -49 -119 -75.5t-137 -26.5q-152 0 -248 94q-64 64 -87 139.5t-23 175.5v705h336v-660q0 -83 43.5 -117t91.5 -34t91.5 33.5t43.5 117.5v660h336v-1102zM996 1249h-246l-162 170l-162 -170h-246l279 367h258z" />
    <glyph glyph-name="udieresis" unicode="&#xfc;" horiz-adv-x="1186" 
d="M1059 0h-328v90q-49 -49 -119 -75.5t-137 -26.5q-152 0 -248 94q-64 64 -87 139.5t-23 175.5v705h336v-660q0 -83 43.5 -117t91.5 -34t91.5 33.5t43.5 117.5v660h336v-1102zM957 1247h-275v297h275v-297zM494 1247h-275v297h275v-297z" />
    <glyph glyph-name="yacute" unicode="&#xfd;" horiz-adv-x="1053" 
d="M1069 1102l-457 -1233q-32 -92 -86 -145q-86 -93 -247 -93h-127v303h71q47 0 72 17t41 65l31 93l-367 993h352l187 -572l178 572h352zM852 1618l-242 -369h-203l101 369h344z" />
    <glyph glyph-name="thorn" unicode="&#xfe;" horiz-adv-x="1169" 
d="M1077 551v-51q0 -147 -18 -246.5t-84 -165.5q-102 -100 -266 -100q-155 0 -246 92v-436h-336v1814h336v-436q47 47 106.5 69.5t139.5 22.5q164 0 266 -100q66 -66 84 -165.5t18 -246.5v-51zM741 551q0 87 -9.5 143.5t-39 86.5t-90.5 30q-86 0 -112.5 -62t-26.5 -198
q0 -87 9.5 -143.5t39 -86.5t90.5 -30t90.5 30t39 86.5t9.5 143.5z" />
    <glyph glyph-name="ydieresis" unicode="&#xff;" horiz-adv-x="1053" 
d="M1069 1102l-457 -1233q-32 -92 -86 -145q-86 -93 -247 -93h-127v303h71q47 0 72 17t41 65l31 93l-367 993h352l187 -572l178 572h352zM895 1247h-275v297h275v-297zM432 1247h-275v297h275v-297z" />
    <glyph glyph-name="OE" unicode="&#x152;" horiz-adv-x="1950" 
d="M1843 0h-991v53q-40 -37 -96 -51t-113 -14q-90 0 -158 16.5t-125.5 50.5t-111.5 88q-54 55 -84.5 122t-43.5 140t-16.5 144t-3.5 180q0 110 3.5 181t16.5 143.5t44 140.5t84 121q81 81 173 118t224 37q137 0 207 -65v53h991v-319h-633v-244h541v-320h-541v-256h633v-319z
M852 729q0 186 -12.5 254t-40.5 104q-20 28 -58.5 46t-85.5 18q-46 0 -83 -17.5t-60 -46.5q-18 -23 -29.5 -56.5t-17.5 -103t-6 -198.5q0 -128 6 -197.5t17.5 -102.5t29.5 -56q51 -66 143 -66q93 0 144 66q28 39 40.5 104.5t12.5 251.5z" />
    <glyph glyph-name="oe" unicode="&#x153;" horiz-adv-x="1769" 
d="M1692 442h-660q0 -71 53 -121.5t142 -50.5q82 0 130.5 22t96.5 70l201 -200q-91 -91 -185.5 -132.5t-242.5 -41.5q-225 0 -350 102q-126 -102 -314 -102q-223 0 -354 141q-45 48 -72 105t-38 130.5t-11 186.5q0 112 11 185.5t38 130t72 106.5q58 61 145 101t209 40
q191 0 320 -108q125 108 313 108q155 0 267.5 -69t170.5 -187t58 -266v-150zM1360 666q0 49 -19 86q-16 38 -53 62t-92 24t-92 -24t-53 -62q-19 -37 -19 -86h328zM702 551q0 96 -9.5 148.5t-39.5 80.5q-30 31 -90 31q-59 0 -90 -31q-30 -30 -39.5 -85.5t-9.5 -143.5
t9.5 -142.5t39.5 -86.5q31 -31 90 -31q60 0 90 30.5t39.5 82t9.5 147.5z" />
    <glyph glyph-name="Scaron" unicode="&#x160;" horiz-adv-x="1214" 
d="M1126 446q0 -143 -75.5 -247t-204 -157.5t-283.5 -53.5q-181 0 -315 43t-238 149l230 230q54 -54 142 -78.5t183 -24.5q209 0 209 131q0 56 -29 86t-96 39l-176 25q-194 27 -293 129q-100 103 -100 293q0 133 64.5 237.5t185 163.5t282.5 59q161 0 281.5 -41.5
t210.5 -132.5l-225 -225q-56 56 -121 71t-156 15q-86 0 -131 -41t-45 -94q0 -39 29 -68q34 -34 100 -43l176 -24q192 -28 287 -121q57 -55 82.5 -133.5t25.5 -186.5zM1016 1968l-279 -367h-258l-279 367h246l162 -170l162 170h246z" />
    <glyph glyph-name="scaron" unicode="&#x161;" horiz-adv-x="1032" 
d="M977 360q0 -125 -64 -208.5t-172 -123.5t-241 -40q-102 0 -177.5 9.5t-153 43.5t-149.5 106l218 218q92 -93 268 -93q49 0 96 17t47 55q0 63 -80 70l-170 16q-96 9 -168.5 44.5t-111.5 103t-39 172.5q0 87 36.5 157t97.5 115t139.5 68.5t164.5 23.5q147 0 252 -29
t182 -106l-207 -207q-66 66 -233 66q-55 0 -82 -20t-27 -44q0 -53 72 -61l170 -17q113 -10 187 -55.5t109.5 -117.5t35.5 -163zM926 1616l-279 -367h-258l-279 367h246l162 -170l162 170h246z" />
    <glyph glyph-name="Ydieresis" unicode="&#x178;" horiz-adv-x="1239" 
d="M1239 1458l-440 -864v-594h-359v594l-440 864h391l230 -524l227 524h391zM987 1599h-275v297h275v-297zM524 1599h-275v297h275v-297z" />
    <glyph glyph-name="florin" unicode="&#x192;" horiz-adv-x="903" 
d="M842 1198h-164q-68 0 -80 -68l-53 -303h184v-258h-229l-164 -925h-336l164 925h-101v258h146l57 328q15 81 64 155.5t135 122.5t201 48l176 -2v-281z" />
    <glyph glyph-name="circumflex" unicode="&#x2c6;" horiz-adv-x="1024" 
d="M920 1249h-246l-162 170l-162 -170h-246l279 367h258z" />
    <glyph glyph-name="tilde" unicode="&#x2dc;" horiz-adv-x="1024" 
d="M907 1399q-67 -67 -124 -98t-128 -31q-48 0 -83 8.5t-83 36.5q-60 35 -114 35q-31 0 -57 -10t-62 -46l-139 142q69 69 124 99t126 30q89 0 165 -45q59 -35 113 -35q31 0 58.5 11t60.5 44z" />
    <glyph glyph-name="emdash" unicode="&#x2013;" 
d="M1038 446h-938v316h938v-316z" />
    <glyph glyph-name="endash" unicode="&#x2014;" horiz-adv-x="2238" 
d="M2138 451h-2038v323h2038v-323z" />
    <glyph glyph-name="quoteleft" unicode="&#x2018;" horiz-adv-x="569" 
d="M453 1159h-336v299l336 246v-545z" />
    <glyph glyph-name="quoteright" unicode="&#x2019;" horiz-adv-x="569" 
d="M453 1157l-336 -242v543h336v-301z" />
    <glyph glyph-name="quotesinglbase" unicode="&#x201a;" horiz-adv-x="565" 
d="M453 0l-336 -242v543h336v-301z" />
    <glyph glyph-name="quotedblleft" unicode="&#x201c;" horiz-adv-x="1047" 
d="M930 1159h-336v299l336 246v-545zM451 1159h-334v299l334 246v-545z" />
    <glyph glyph-name="quotedblright" unicode="&#x201d;" horiz-adv-x="1047" 
d="M930 1157l-336 -242v543h336v-301zM451 1157l-334 -242v543h334v-301z" />
    <glyph glyph-name="quotedblbase" unicode="&#x201e;" horiz-adv-x="1053" 
d="M930 0l-336 -242v543h336v-301zM451 0l-334 -242v543h334v-301z" />
    <glyph glyph-name="dagger" unicode="&#x2020;" horiz-adv-x="1155" 
d="M1059 799h-314v-799h-335v799h-314v303h314v356h335v-356h314v-303z" />
    <glyph glyph-name="daggerdbl" unicode="&#x2021;" horiz-adv-x="1155" 
d="M1059 0h-314v-356h-335v356h-314v303h314v496h-314v303h314v356h335v-356h314v-303h-314v-496h314v-303z" />
    <glyph glyph-name="bullet" unicode="&#x2022;" horiz-adv-x="963" 
d="M815 684q0 -90 -45 -167.5t-122.5 -122t-166.5 -44.5q-66 0 -127.5 26.5t-107.5 72.5t-72.5 107.5t-26.5 127.5t26.5 128.5t72 108t106 71.5t129.5 26q89 0 166.5 -44.5t122.5 -122t45 -167.5z" />
    <glyph glyph-name="ellipsis" unicode="&#x2026;" horiz-adv-x="1841" 
d="M1724 0h-348v348h348v-348zM1094 0h-349v348h349v-348zM465 0h-348v348h348v-348z" />
    <glyph glyph-name="perthousand" unicode="&#x2030;" horiz-adv-x="2517" 
d="M2425 272q0 -93 -42.5 -157.5t-113.5 -95.5t-153 -31q-83 0 -154 31t-113.5 95.5t-42.5 157.5v195q0 94 42.5 158.5t113.5 95.5t154 31q82 0 153 -31t113.5 -95.5t42.5 -158.5v-195zM1663 272q0 -93 -42 -157t-113 -95.5t-154 -31.5t-154 31t-113.5 95.5t-42.5 157.5v195
q0 94 42.5 158.5t113.5 95.5t154 31t154 -31.5t113 -95.5t42 -158v-195zM1354 1458l-695 -1458h-258l695 1458h258zM711 991q0 -93 -42.5 -157.5t-113.5 -95.5t-154 -31q-82 0 -153 31t-113.5 95.5t-42.5 157.5v195q0 93 42.5 157.5t113.5 95.5t153 31q83 0 154 -31
t113.5 -95.5t42.5 -157.5v-195zM2187 281v178q0 80 -71 80q-72 0 -72 -80v-178q0 -80 72 -80q71 0 71 80zM1425 281v178q0 80 -71 80q-72 0 -72 -80v-178q0 -80 72 -80q71 0 71 80zM473 999v179q0 79 -72 79q-71 0 -71 -79v-179q0 -79 71 -79q72 0 72 79z" />
    <glyph glyph-name="guilsinglleft" unicode="&#x2039;" horiz-adv-x="743" 
d="M621 18l-560 555l560 553v-395l-162 -158l162 -159v-396z" />
    <glyph glyph-name="guilsinglright" unicode="&#x203a;" horiz-adv-x="743" 
d="M682 573l-559 -555v396l164 159l-164 158v395z" />
    <glyph glyph-name="trademark" unicode="&#x2122;" horiz-adv-x="1993" 
d="M1855 584h-239v448l-137 -268h-205l-137 268v-448h-240v874h240l239 -430l240 430h239v-874zM772 1245h-215v-661h-238v661h-215v213h668v-213z" />
    <glyph glyph-name="periodcentered" unicode="&#x2219;" horiz-adv-x="602" 
d="M485 420h-368v368h368v-368z" />
    <glyph glyph-name="Lslash" horiz-adv-x="1227" 
d="M1165 0h-970v444l-123 -77v299l123 77v715h358v-489l231 145v-297l-231 -145v-353h612v-319z" />
    <glyph glyph-name="lslash" horiz-adv-x="713" 
d="M672 0h-178q-115 0 -192 47.5t-113.5 123t-36.5 155.5v245l-101 -61v281l101 61v606h335v-405l101 61v-280l-101 -62v-422q0 -67 68 -67h117v-283z" />
    <glyph glyph-name="Zcaron" horiz-adv-x="1112" 
d="M1051 0h-990v279l560 860h-535v319h965v-278l-562 -861h562v-319zM967 1968l-279 -367h-258l-279 367h246l162 -170l162 170h246z" />
    <glyph glyph-name="zcaron" horiz-adv-x="1001" 
d="M920 0h-859v248l420 551h-395v303h834v-248l-428 -551h428v-303zM910 1616l-279 -367h-258l-279 367h246l162 -170l162 170h246z" />
    <glyph glyph-name="notequal" horiz-adv-x="1311" 
d="M1210 197h-696l-211 -287l-203 151l99 136h-99v315h330l135 184h-465v316h697l211 286l202 -151l-98 -135h98v-316h-329l-136 -184h465v-315z" />
    <glyph glyph-name="infinity" horiz-adv-x="1794" 
d="M1698 604q0 -86 -27.5 -165t-80 -135.5t-133.5 -89t-187 -32.5q-105 0 -201 49t-172 131q-76 -82 -172 -131t-201 -49q-138 0 -235 55.5t-145 150.5t-48 216q0 120 48 215.5t145 151t235 55.5q108 0 202.5 -49t170.5 -131q76 82 170.5 131t202.5 49q106 0 186.5 -31.5
t134 -89t80.5 -136t27 -165.5zM1370 594q0 48 -29 74t-69 26q-38 0 -69 -25t-73 -75q45 -52 74.5 -76t67.5 -24q41 0 69.5 25.5t28.5 74.5zM664 594q-38 48 -71 74t-71 26q-40 0 -69 -26t-29 -74q0 -49 28.5 -74.5t69.5 -25.5q38 0 69.5 25.5t72.5 74.5z" />
    <glyph glyph-name="lessequal" horiz-adv-x="2103" 
d="M1837 41l-223 -223l-946 946l4 -875l-297 297v1094h1093l297 -297l-874 4z" />
    <glyph glyph-name="greaterequal" horiz-adv-x="2103" 
d="M1726 188l-296 -297l6 875l-949 -948l-223 223l948 948l-874 -6l297 297h1091v-1092z" />
    <glyph glyph-name="partialdiff" horiz-adv-x="1149" 
d="M1022 530q0 -157 -25.5 -246.5t-91.5 -160.5q-125 -135 -342 -135q-215 0 -342 135q-66 71 -91.5 160.5t-25.5 246.5t25.5 248.5t91.5 161.5q125 133 334 133q80 0 129 -24v2q0 18 -15.5 50t-55 59.5t-105.5 27.5q-118 0 -189 -70l-208 209q78 80 176 111.5t237 31.5
q125 0 219 -37.5t156 -105.5t92.5 -161.5t30.5 -204.5v-431zM686 530q0 88 -8.5 137t-34.5 74q-27 29 -80 29q-51 0 -80 -29q-26 -26 -34.5 -74.5t-8.5 -136.5q0 -63 3 -98t12 -64.5t28 -48.5q30 -28 80 -28q52 0 79.5 27.5t35.5 76t8 135.5z" />
    <glyph glyph-name="summation" horiz-adv-x="1133" 
d="M1071 -360h-1010v278l371 700l-362 660v278h991v-319h-569l241 -459v-334l-258 -485h596v-319z" />
    <glyph glyph-name="product" horiz-adv-x="1393" 
d="M1245 -356h-358v1595h-381v-1595h-359v1912h1098v-1912z" />
    <glyph glyph-name="pi" horiz-adv-x="1212" 
d="M1085 0h-335v782h-287v-782h-336v1102h958v-1102z" />
    <glyph glyph-name="integral" horiz-adv-x="1147" 
d="M1004 1212h-113q-141 0 -141 -135v-999q0 -136 -58 -230.5t-162.5 -142t-238.5 -47.5h-150v283h113q141 0 141 135v999q0 136 58 230.5t162.5 142t238.5 47.5h150v-283z" />
    <glyph glyph-name="Omega" horiz-adv-x="1311" 
d="M1210 0h-477v279q42 20 66 51q27 37 40 113.5t13 265.5q0 188 -13 263.5t-40 110.5q-21 29 -59 48.5t-85 19.5q-46 0 -82.5 -19t-60.5 -49q-17 -22 -29 -59.5t-18 -111.5t-6 -203q0 -186 12.5 -263t40.5 -116q22 -30 66 -51v-279h-478v319h93q-32 40 -52 99
q-41 126 -41 311v49q0 188 26 310.5t122 218.5q83 83 179.5 123t227.5 40q132 0 229 -40.5t179 -122.5q66 -66 98 -148.5t40.5 -170.5t8.5 -210v-49q0 -189 -41 -311q-17 -57 -51 -99h92v-319z" />
    <glyph glyph-name="radical" horiz-adv-x="1262" 
d="M1200 1139h-192l-377 -1139h-266l-365 1102h362l138 -459l241 815h459v-319z" />
    <glyph glyph-name="approxequal" horiz-adv-x="1323" 
d="M1262 836q-68 -68 -128 -111.5t-121.5 -64.5t-133.5 -21q-46 0 -87.5 6t-80 21t-84.5 43q-90 51 -172 51q-50 0 -90 -16.5t-91 -67.5l-213 213q104 104 189.5 150t189.5 46q75 0 130 -14.5t122 -54.5q87 -51 172 -51q47 0 89 16.5t91 67.5zM1262 315
q-70 -70 -127.5 -111.5t-119 -63t-132.5 -21.5q-33 0 -69 4.5t-60.5 10.5t-48 16.5t-74.5 37.5q-89 52 -172 52q-48 0 -88 -16t-92 -68l-218 213q103 103 190.5 149.5t192.5 46.5q75 0 130 -14.5t122 -54.5q89 -52 172 -52q48 0 88.5 17t92.5 67z" />
    <glyph glyph-name="Delta" horiz-adv-x="1337" 
d="M1337 0h-1337l530 1458h277zM868 299l-190 606l-203 -606h393z" />
    <glyph glyph-name="lozenge" horiz-adv-x="1286" 
d="M1190 684l-547 -754l-547 754l547 754zM811 684l-168 229l-168 -229l168 -229z" />
    <glyph glyph-name="fraction" horiz-adv-x="453" 
d="M702 1458l-694 -1458h-258l694 1458h258z" />
    <glyph glyph-name="fi" horiz-adv-x="1282" 
d="M1155 1214h-336v256h336v-256zM1155 0h-336v1059h336v-1059zM672 801h-185v-801h-335v801h-101v258h101v96q0 80 36.5 155.5t113.5 123t192 47.5h178v-283h-117q-68 0 -68 -68v-71h185v-258z" />
    <glyph glyph-name="fl" horiz-adv-x="1380" 
d="M1339 0h-178q-114 0 -191 47.5t-114 123t-37 155.5v1132h336v-1108q0 -67 68 -67h116v-283zM672 801h-185v-801h-335v801h-101v258h101v96q0 80 36.5 155.5t113.5 123t192 47.5h178v-283h-117q-68 0 -68 -68v-71h185v-258z" />
    <glyph glyph-name="dotlessi" horiz-adv-x="590" 
d="M463 0h-336v1102h336v-1102z" />
    <glyph glyph-name="breve" horiz-adv-x="1024" 
d="M848 1536q-4 -167 -101.5 -244.5t-234.5 -77.5q-135 0 -233.5 78.5t-102.5 243.5h217q8 -96 119 -96t119 96h217z" />
    <glyph glyph-name="dotaccent" horiz-adv-x="1024" 
d="M680 1214h-336v256h336v-256z" />
    <glyph glyph-name="ring" horiz-adv-x="1024" 
d="M795 1497q0 -75 -38 -141t-103.5 -104t-141.5 -38q-57 0 -108 22t-91 62t-62 91t-22 108q0 75 38 141t103.5 104t141.5 38q75 0 141 -38t104 -103t38 -142zM618 1497q0 43 -31 75t-75 32t-75 -32t-31 -75q0 -44 31 -75t75 -31t75 31t31 75z" />
    <glyph glyph-name="hungarumlaut" horiz-adv-x="1024" 
d="M973 1618l-242 -369h-203l101 369h344zM496 1618l-240 -369h-205l101 369h344z" />
    <glyph glyph-name="ogonek" horiz-adv-x="1024" 
d="M698 -410h-299l-73 295h235z" />
    <glyph glyph-name="caron" horiz-adv-x="1024" 
d="M920 1616l-279 -367h-258l-279 367h246l162 -170l162 170h246z" />
  </font>
</defs>
</svg>
